<svg width="53" height="53" viewBox="0 0 53 53" fill="none" xmlns="http://www.w3.org/2000/svg">
<path d="M27.5582 7.96077C27.4843 8.00204 27.4073 8.03775 27.328 8.06759V5.79688H28.1561V4.14062H27.328V3.3125H25.6718V4.14062H24.8436V5.79688H25.6718V8.06759C25.5927 8.03775 25.5161 8.00204 25.4424 7.96077L23.647 6.76413L22.7278 8.14212L24.524 9.33877C25.1092 9.72918 25.7969 9.93754 26.5003 9.93754C27.2038 9.93754 27.8915 9.72918 28.4766 9.33877L30.272 8.14212L29.3528 6.76413L27.5582 7.96077Z" fill="black"/>
<path d="M46.2922 30.1829C46.3458 30.0766 46.3759 29.96 46.3804 29.841C46.3849 29.722 46.3636 29.6034 46.3181 29.4933C46.2726 29.3833 46.2039 29.2844 46.1167 29.2033C46.0295 29.1222 45.9258 29.0609 45.8127 29.0235L38.3596 26.5392C38.1706 26.476 37.9651 26.483 37.7809 26.5591C37.5967 26.6351 37.4461 26.7751 37.3567 26.9532L36.7207 28.226L31.4688 27.4435V25.8444C32.5016 25.1703 33.3871 24.2938 34.0716 23.2678C34.7561 22.2419 35.2254 21.0877 35.4512 19.8752H35.6094C36.4719 19.8806 37.3023 19.5484 37.9232 18.9498C38.5441 18.3511 38.9063 17.5334 38.9325 16.6713C38.9587 15.8092 38.6467 14.971 38.0632 14.3358C37.4797 13.7006 36.671 13.3187 35.8098 13.2718C36.141 13.0051 36.4516 12.7186 36.7596 12.4229H38.0184C38.7816 12.4232 39.5226 12.1657 40.1211 11.6922C40.7197 11.2186 41.1407 10.5568 41.3161 9.81397C41.4914 9.07116 41.4107 8.2909 41.0871 7.59969C40.7634 6.90847 40.2158 6.34683 39.533 6.0058L31.5772 2.0308C29.9963 1.25684 28.2594 0.854492 26.4992 0.854492C24.739 0.854492 23.002 1.25684 21.4211 2.0308L13.4653 6.0058C12.7829 6.3471 12.2357 6.90881 11.9124 7.59993C11.5891 8.29105 11.5087 9.07108 11.684 9.81364C11.8594 10.5562 12.2804 11.2178 12.8788 11.6912C13.4771 12.1647 14.2178 12.4222 14.9808 12.4221H16.2404C16.5484 12.7178 16.8623 13.0018 17.1902 13.2701C16.3288 13.3171 15.5198 13.6991 14.9362 14.3344C14.3526 14.9698 14.0405 15.8082 14.0667 16.6705C14.0929 17.5328 14.4552 18.3507 15.0762 18.9495C15.6973 19.5483 16.5279 19.8806 17.3906 19.8752H17.5505C17.776 21.0876 18.2451 22.2417 18.9293 23.2676C19.6135 24.2936 20.4987 25.1702 21.5312 25.8444V27.4435L16.2834 28.231L15.6516 26.9582C15.5622 26.7801 15.4116 26.6401 15.2274 26.5641C15.0432 26.488 14.8377 26.4809 14.6487 26.5441L7.19558 29.0285C7.08251 29.0659 6.97883 29.1272 6.8916 29.2083C6.80438 29.2893 6.73567 29.3883 6.69016 29.4983C6.64465 29.6084 6.62341 29.7269 6.62788 29.8459C6.63236 29.9649 6.66245 30.0816 6.71609 30.1879L7.473 31.7C5.87258 33.446 4.9798 35.7255 4.96875 38.094V52.1721H6.625V38.094C6.62172 36.3576 7.20179 34.6705 8.27214 33.3033L8.3682 33.4954C8.45756 33.6735 8.60817 33.8135 8.79238 33.8895C8.97659 33.9656 9.18205 33.9727 9.37106 33.9095L16.8242 31.4251C16.9373 31.3877 17.0409 31.3264 17.1282 31.2453C17.2154 31.1643 17.2841 31.0653 17.3296 30.9553C17.3751 30.8452 17.3964 30.7267 17.3919 30.6077C17.3874 30.4887 17.3573 30.372 17.3037 30.2657L17.0627 29.7838L17.7078 29.6869L20.81 35.1831C20.8695 35.2889 20.9516 35.3803 21.0504 35.4508C21.1492 35.5213 21.2623 35.5693 21.3817 35.5913C21.5011 35.6132 21.6238 35.6087 21.7413 35.5779C21.8587 35.5472 21.9679 35.491 22.0612 35.4133L24.0239 33.7778L24.5108 34.9595C24.1899 35.3856 24.0161 35.9043 24.0156 36.4377V36.6746C22.2727 37.0074 20.6145 37.6872 19.1396 38.6737L17.6622 37.1963C17.3009 36.8349 16.8405 36.5887 16.3393 36.4889C15.838 36.3892 15.3185 36.4402 14.8462 36.6356C14.374 36.8311 13.9703 37.1621 13.6862 37.5869C13.4021 38.0117 13.2503 38.5112 13.25 39.0223C13.2518 39.7074 13.5238 40.3642 14.0069 40.85L15.4859 42.3282C14.4994 43.8028 13.8193 45.4607 13.486 47.2034H9.10938C8.88974 47.2034 8.67911 47.2906 8.5238 47.4459C8.3685 47.6012 8.28125 47.8119 8.28125 48.0315V52.1721H9.9375V48.8596H24.0156V52.1721H25.6719V36.4377C25.6719 36.2181 25.7591 36.0075 25.9144 35.8522C26.0697 35.6969 26.2804 35.6096 26.5 35.6096C26.7196 35.6096 26.9303 35.6969 27.0856 35.8522C27.2409 36.0075 27.3281 36.2181 27.3281 36.4377V52.1721H28.9844V48.8596H43.0625V52.1721H44.7188V48.0315C44.7188 47.8119 44.6315 47.6012 44.4762 47.4459C44.3209 47.2906 44.1103 47.2034 43.8906 47.2034H39.514C39.1807 45.4607 38.5006 43.8028 37.5141 42.3282L38.9923 40.85C39.3537 40.4886 39.5999 40.0281 39.6997 39.5268C39.7994 39.0255 39.7483 38.5059 39.5528 38.0336C39.3572 37.5613 39.0261 37.1577 38.6011 36.8736C38.1762 36.5895 37.6766 36.4379 37.1654 36.4377C36.8259 36.4368 36.4895 36.5032 36.1758 36.6331C35.862 36.763 35.5772 36.9539 35.3378 37.1946L33.8604 38.6737C32.3852 37.6875 30.7271 37.0074 28.9844 36.6738V36.4377C28.9823 35.9059 28.808 35.389 28.4875 34.9645L28.9744 33.7828L30.9371 35.4183C31.0304 35.496 31.1396 35.5521 31.2571 35.5829C31.3745 35.6136 31.4973 35.6182 31.6167 35.5962C31.736 35.5743 31.8491 35.5263 31.9479 35.4558C32.0467 35.3853 32.1288 35.2939 32.1884 35.1881L35.2905 29.6918L35.9357 29.7887L35.6947 30.2707C35.641 30.377 35.6109 30.4936 35.6065 30.6126C35.602 30.7316 35.6232 30.8502 35.6687 30.9603C35.7143 31.0703 35.783 31.1692 35.8702 31.2503C35.9574 31.3314 36.0611 31.3927 36.1742 31.4301L43.6273 33.9144C43.8163 33.9776 44.0218 33.9706 44.206 33.8945C44.3902 33.8185 44.5408 33.6785 44.6301 33.5004L44.7262 33.3083C45.7961 34.6739 46.3767 36.3591 46.375 38.094V52.1721H48.0312V38.094C48.0226 35.7243 47.1312 33.4429 45.5311 31.6951L46.2922 30.1829ZM8.62492 30.2964L9.52178 29.9974L10.4327 31.8135L9.53503 32.1124L8.62492 30.2964ZM12.0202 31.2843L11.1093 29.4682L14.4914 28.3412L15.4023 30.1572L12.0202 31.2843ZM37.2656 16.5627C37.2656 17.002 37.0911 17.4233 36.7805 17.7339C36.4699 18.0445 36.0486 18.219 35.6094 18.219V14.9065C36.0486 14.9065 36.4699 15.081 36.7805 15.3916C37.0911 15.7022 37.2656 16.1235 37.2656 16.5627ZM13.25 9.03508C13.2489 8.71339 13.3379 8.39782 13.507 8.12413C13.676 7.85043 13.9184 7.62955 14.2065 7.48649L22.1623 3.51149C23.5092 2.83836 24.9943 2.48793 26.5 2.48793C28.0057 2.48793 29.4908 2.83836 30.8377 3.51149L38.7935 7.48649C39.1418 7.66123 39.421 7.94835 39.586 8.30143C39.7509 8.65451 39.7919 9.0529 39.7023 9.43217C39.6128 9.81143 39.3979 10.1494 39.0925 10.3914C38.7871 10.6335 38.4089 10.7654 38.0192 10.7659H14.9808C14.522 10.7652 14.0821 10.5826 13.7577 10.2582C13.4332 9.93376 13.2507 9.49391 13.25 9.03508ZM34.1775 12.4221C31.9449 14.0371 29.2596 14.9064 26.5041 14.9064C23.7486 14.9064 21.0634 14.0371 18.8307 12.4221H34.1775ZM16.2197 17.7337C15.9881 17.5021 15.8304 17.207 15.7665 16.8858C15.7027 16.5645 15.7355 16.2316 15.8608 15.929C15.9861 15.6264 16.1983 15.3677 16.4706 15.1857C16.743 15.0037 17.0631 14.9066 17.3906 14.9065V18.219C17.173 18.2196 16.9575 18.177 16.7565 18.0937C16.5555 18.0104 16.373 17.888 16.2197 17.7337ZM19.0469 18.219V14.5405C21.3075 15.8647 23.8801 16.5627 26.5 16.5627C29.1199 16.5627 31.6925 15.8647 33.9531 14.5405V18.219C33.9531 20.1957 33.1679 22.0914 31.7702 23.4891C30.3724 24.8869 28.4767 25.6721 26.5 25.6721C24.5233 25.6721 22.6276 24.8869 21.2298 23.4891C19.8321 22.0914 19.0469 20.1957 19.0469 18.219ZM26.5 27.3284C27.6341 27.3269 28.7577 27.1123 29.8125 26.6957V27.6894L26.5 29.6769L23.1875 27.6894V26.6957C24.2423 27.1123 25.3659 27.3269 26.5 27.3284ZM21.764 33.5095L19.4609 29.4293L22.1888 29.0194L25.074 30.751L21.764 33.5095ZM24.0156 43.548L22.7676 42.3C23.169 42.0966 23.5864 41.9265 24.0156 41.7916V43.548ZM24.0156 38.3664V40.0749C23.1515 40.2965 22.3217 40.6353 21.5495 41.0819L20.3387 39.8711C21.4683 39.161 22.7123 38.6519 24.0156 38.3664ZM16.6834 43.5265L17.8941 44.7372C17.4479 45.5097 17.1091 46.3394 16.8871 47.2034H15.1779C15.4642 45.9002 15.9735 44.6562 16.6834 43.5265ZM20.3603 47.2034H18.6038C18.7386 46.7741 18.9087 46.3566 19.1123 45.9554L20.3603 47.2034ZM22.7022 47.2034L15.1779 39.679C15.0479 39.5492 14.9594 39.3837 14.9236 39.2036C14.8877 39.0234 14.9061 38.8367 14.9764 38.667C15.0467 38.4973 15.1658 38.3523 15.3185 38.2503C15.4713 38.1483 15.6509 38.0939 15.8346 38.094C15.9566 38.0935 16.0775 38.1173 16.1902 38.1639C16.3029 38.2105 16.4053 38.2791 16.4913 38.3656L24.0156 45.89V47.2034H22.7022ZM28.9844 41.7916C29.4136 41.9267 29.831 42.0967 30.2324 42.3L28.9844 43.548V41.7916ZM33.8877 45.9554C34.0913 46.3566 34.2614 46.7741 34.3962 47.2034H32.6397L33.8877 45.9554ZM37.8221 47.2034H36.1129C35.8909 46.3394 35.5521 45.5097 35.1059 44.7372L36.3166 43.5265C37.0265 44.6562 37.5359 45.9002 37.8221 47.2034ZM36.5087 38.3656C36.6385 38.2357 36.804 38.1472 36.9842 38.1113C37.1643 38.0754 37.3511 38.0938 37.5208 38.1641C37.6904 38.2344 37.8355 38.3535 37.9375 38.5063C38.0395 38.659 38.0939 38.8386 38.0938 39.0223C38.0928 39.2684 37.9953 39.5042 37.8221 39.679L30.2978 47.2034H28.9844V45.89L36.5087 38.3656ZM32.6612 39.8711L31.4505 41.0819C30.6779 40.6359 29.8483 40.2971 28.9844 40.0749V38.3656C30.2876 38.652 31.5315 39.1613 32.6612 39.8711ZM27.0797 34.0295C26.6977 33.928 26.2957 33.928 25.9137 34.0295L25.3539 32.6714L26.5 31.7174L27.6428 32.6698L27.0797 34.0295ZM31.2327 33.5095L27.9202 30.751L30.8054 29.0194L33.5333 29.4293L31.2327 33.5095ZM38.5095 28.3412L41.8915 29.4682L40.9806 31.2843L37.6052 30.1572L38.5095 28.3412ZM43.4683 32.1124L42.5706 31.8135L43.4815 29.9974L44.3784 30.2964L43.4683 32.1124Z" fill="black"/>
</svg>
