<svg width="1438" height="163" viewBox="0 0 1438 163" fill="none" xmlns="http://www.w3.org/2000/svg">
<path d="M70.5187 162.534C59.3993 162.534 49.0539 160.493 39.4828 156.411C30.0523 152.329 21.8183 146.699 14.7807 139.52C7.88377 132.201 2.46479 123.615 -1.47629 113.763C-5.41736 103.91 -7.3879 93.0721 -7.3879 81.2489C-7.3879 69.5664 -5.48774 58.7988 -1.68742 48.9461C2.25366 38.9527 7.74302 30.3668 14.7807 23.1884C21.8183 15.8692 30.0523 10.2391 39.4828 6.29804C48.9132 2.21621 59.2585 0.175296 70.5187 0.175296C81.6382 0.175296 91.5613 2.07546 100.288 5.87578C109.155 9.67611 116.615 14.6728 122.668 20.8659C128.72 26.9183 133.083 33.5337 135.758 40.7121L113.378 51.2685C110 42.8234 104.581 35.9969 97.121 30.789C89.8018 25.4404 80.9344 22.7661 70.5187 22.7661C60.103 22.7661 50.8837 25.2293 42.8608 30.1556C34.8379 35.082 28.5744 41.9085 24.0703 50.6351C19.707 59.3618 17.5253 69.5664 17.5253 81.2489C17.5253 92.9313 19.707 103.206 24.0703 112.074C28.5744 120.8 34.8379 127.627 42.8608 132.553C50.8837 137.339 60.103 139.732 70.5187 139.732C80.9344 139.732 89.8018 137.128 97.121 131.92C104.581 126.712 110 119.885 113.378 111.44L135.758 121.997C133.083 129.034 128.72 135.65 122.668 141.843C116.615 148.036 109.155 153.033 100.288 156.833C91.5613 160.633 81.6382 162.534 70.5187 162.534ZM157.154 160V2.70884H214.37C224.927 2.70884 234.216 4.67938 242.239 8.62046C250.262 12.4208 256.526 18.0509 261.03 25.5108C265.675 32.8299 267.997 41.627 267.997 51.9019C267.997 62.7399 265.252 72.0296 259.763 79.771C254.414 87.5124 247.166 93.1425 238.017 96.6613L274.331 160H246.04L207.403 91.3831L223.66 100.884H182.067V160H157.154ZM182.067 78.7153H214.792C220.563 78.7153 225.56 77.5893 229.783 75.3372C234.005 73.0852 237.243 69.9886 239.495 66.0476C241.887 61.9657 243.084 57.1801 243.084 51.6908C243.084 46.2014 241.887 41.4862 239.495 37.5451C237.243 33.4633 234.005 30.3668 229.783 28.2555C225.56 26.0034 220.563 24.8774 214.792 24.8774H182.067V78.7153ZM291.073 160V2.70884H394.737V24.8774H315.986V70.059H390.514V92.2276H315.986V137.831H394.737V160H291.073ZM442.998 160L399.717 2.70884H426.108L461.155 138.887H454.61L490.925 2.70884H516.893L553.208 138.887H546.451L581.71 2.70884H607.89L564.82 160H536.74L500.214 25.933H507.604L470.867 160H442.998ZM728.153 162.534C717.033 162.534 706.688 160.493 697.117 156.411C687.686 152.329 679.452 146.699 672.415 139.52C665.518 132.201 660.099 123.615 656.158 113.763C652.217 103.91 650.246 93.0721 650.246 81.2489C650.246 69.5664 652.146 58.7988 655.947 48.9461C659.888 38.9527 665.377 30.3668 672.415 23.1884C679.452 15.8692 687.686 10.2391 697.117 6.29804C706.547 2.21621 716.893 0.175296 728.153 0.175296C739.272 0.175296 749.195 2.07546 757.922 5.87578C766.789 9.67611 774.249 14.6728 780.302 20.8659C786.354 26.9183 790.717 33.5337 793.392 40.7121L771.012 51.2685C767.634 42.8234 762.215 35.9969 754.755 30.789C747.436 25.4404 738.568 22.7661 728.153 22.7661C717.737 22.7661 708.518 25.2293 700.495 30.1556C692.472 35.082 686.208 41.9085 681.704 50.6351C677.341 59.3618 675.159 69.5664 675.159 81.2489C675.159 92.9313 677.341 103.206 681.704 112.074C686.208 120.8 692.472 127.627 700.495 132.553C708.518 137.339 717.737 139.732 728.153 139.732C738.568 139.732 747.436 137.128 754.755 131.92C762.215 126.712 767.634 119.885 771.012 111.44L793.392 121.997C790.717 129.034 786.354 135.65 780.302 141.843C774.249 148.036 766.789 153.033 757.922 156.833C749.195 160.633 739.272 162.534 728.153 162.534ZM814.788 160V2.70884H918.453V24.8774H839.701V70.059H914.23V92.2276H839.701V137.831H918.453V160H814.788ZM937.367 160V2.70884H957.424L1045.68 124.53L1036.18 126.008V2.70884H1060.88V160H1040.82L953.201 37.334L962.28 35.645V160H937.367ZM1117.09 160V24.8774H1075.29V2.70884H1182.96V24.8774H1141.79V160H1117.09ZM1197.37 160V2.70884H1301.03V24.8774H1222.28V70.059H1296.81V92.2276H1222.28V137.831H1301.03V160H1197.37ZM1319.95 160V2.70884H1377.16C1387.72 2.70884 1397.01 4.67938 1405.03 8.62046C1413.06 12.4208 1419.32 18.0509 1423.82 25.5108C1428.47 32.8299 1430.79 41.627 1430.79 51.9019C1430.79 62.7399 1428.05 72.0296 1422.56 79.771C1417.21 87.5124 1409.96 93.1425 1400.81 96.6613L1437.12 160H1408.83L1370.2 91.3831L1386.45 100.884H1344.86V160H1319.95ZM1344.86 78.7153H1377.59C1383.36 78.7153 1388.35 77.5893 1392.58 75.3372C1396.8 73.0852 1400.04 69.9886 1402.29 66.0476C1404.68 61.9657 1405.88 57.1801 1405.88 51.6908C1405.88 46.2014 1404.68 41.4862 1402.29 37.5451C1400.04 33.4633 1396.8 30.3668 1392.58 28.2555C1388.35 26.0034 1383.36 24.8774 1377.59 24.8774H1344.86V78.7153Z" fill="url(#paint0_linear_2080_459)" fill-opacity="0.1"/>
<defs>
<linearGradient id="paint0_linear_2080_459" x1="711.5" y1="191" x2="712" y2="18.5" gradientUnits="userSpaceOnUse">
<stop stop-color="#131313"/>
<stop offset="1" stop-color="white"/>
</linearGradient>
</defs>
</svg>
