<svg width="27" height="23" viewBox="0 0 27 23" fill="none" xmlns="http://www.w3.org/2000/svg">
<path d="M24.167 0.833252H2.83366C1.36699 0.833252 0.180326 2.03325 0.180326 3.49992L0.166992 19.4999C0.166992 20.9666 1.36699 22.1666 2.83366 22.1666H24.167C25.6337 22.1666 26.8337 20.9666 26.8337 19.4999V3.49992C26.8337 2.03325 25.6337 0.833252 24.167 0.833252ZM23.6337 6.49992L14.207 12.3933C13.7803 12.6599 13.2203 12.6599 12.7937 12.3933L3.36699 6.49992C3.2333 6.42487 3.11622 6.32347 3.02284 6.20186C2.92947 6.08025 2.86174 5.94096 2.82376 5.79241C2.78578 5.64387 2.77833 5.48917 2.80187 5.33766C2.82541 5.18616 2.87944 5.041 2.9607 4.91099C3.04196 4.78097 3.14876 4.66879 3.27463 4.58125C3.4005 4.4937 3.54282 4.4326 3.69299 4.40165C3.84315 4.3707 3.99804 4.37054 4.14826 4.40118C4.29849 4.43182 4.44094 4.49263 4.56699 4.57992L13.5003 10.1666L22.4337 4.57992C22.5597 4.49263 22.7022 4.43182 22.8524 4.40118C23.0026 4.37054 23.1575 4.3707 23.3077 4.40165C23.4578 4.4326 23.6002 4.4937 23.726 4.58125C23.8519 4.66879 23.9587 4.78097 24.0399 4.91099C24.1212 5.041 24.1752 5.18616 24.1988 5.33766C24.2223 5.48917 24.2149 5.64387 24.1769 5.79241C24.1389 5.94096 24.0712 6.08025 23.9778 6.20186C23.8844 6.32347 23.7674 6.42487 23.6337 6.49992Z" fill="url(#paint0_linear_4893_8135)"/>
<defs>
<linearGradient id="paint0_linear_4893_8135" x1="4.36035" y1="23.5573" x2="25.9393" y2="18.9176" gradientUnits="userSpaceOnUse">
<stop stop-color="#034D92"/>
<stop offset="1" stop-color="#0487D9"/>
</linearGradient>
</defs>
</svg>
