<svg width="53" height="53" viewBox="0 0 53 53" fill="none" xmlns="http://www.w3.org/2000/svg">
<g clip-path="url(#clip0_20_10760)">
<path d="M41.9311 27.5132L37.2734 27.0308C34.872 26.772 33.0472 24.7515 33.0339 22.3359V21.9077C34.5012 20.5964 35.4583 18.8088 35.7357 16.8603C37.1792 16.0135 37.9697 13.6445 37.9697 12.0906C38.0898 10.8998 37.3887 9.77851 36.2658 9.36487V6.48511C36.1793 2.82657 33.1495 -0.0729996 29.4906 0.00140031H23.6077C19.9492 -0.0729996 16.9194 2.82657 16.8329 6.48511V9.36487C15.7096 9.77811 15.0081 10.8994 15.1282 12.0906C15.1282 13.6408 15.9186 16.0099 17.3622 16.8603C17.64 18.8088 18.5979 20.5964 20.0656 21.9077V22.3315C20.0527 24.7474 18.2279 26.768 15.8261 27.0263L11.1708 27.5124C7.99991 27.8363 4.46673 30.564 4.46673 33.9649V39.4147C4.3895 40.1697 4.63211 40.9221 5.13552 41.4898C5.63934 42.0571 6.35786 42.3875 7.11642 42.4004H8.82114L9.78511 48.906C9.95817 51.2091 11.8732 52.9919 14.1828 53H38.9155C41.2065 52.996 43.1142 51.2407 43.3083 48.9581L44.2775 42.4004H45.9823C46.7408 42.3875 47.4593 42.0571 47.9628 41.4898C48.4666 40.9221 48.7092 40.1697 48.632 39.4147V33.9649C48.632 30.564 45.0988 27.8363 41.9311 27.5132ZM41.8401 46.8171H11.2594L9.62418 35.7675C9.52956 34.7344 9.87285 33.709 10.5712 32.9411C11.2274 32.2133 12.1623 31.7989 13.1424 31.8009H39.9563C40.9368 31.7997 41.8717 32.2149 42.5275 32.9436C43.2157 33.6965 43.561 34.7009 43.4806 35.7174L41.8401 46.8171ZM19.3063 27.4355L23.3404 29.9583L23.3069 30.0343H18.7762L17.158 28.5503C17.938 28.3178 18.667 27.9394 19.3063 27.4355ZM29.7918 30.0343L29.7603 29.9583L33.7924 27.4355C34.4313 27.9394 35.1595 28.3174 35.9391 28.5503L34.3225 30.0343H29.7918ZM23.6089 1.7684H29.4918C32.1746 1.694 34.4131 3.80226 34.4992 6.48511V8.05114C34.2303 7.982 33.9533 7.94844 33.676 7.95127H33.5417C30.5382 7.95127 29.5253 3.8431 29.5112 3.78488C29.5039 3.75657 29.4853 3.73514 29.4756 3.70805C29.4574 3.65306 29.4335 3.60049 29.404 3.55076C29.3733 3.49698 29.3369 3.44684 29.2957 3.40075C29.2811 3.37851 29.2661 3.35748 29.2496 3.33686C29.231 3.32028 29.2063 3.31381 29.1869 3.29885C29.1347 3.25842 29.0777 3.22405 29.0175 3.19655C28.9192 3.14763 28.8117 3.12094 28.7021 3.11811C28.6459 3.11406 28.5897 3.11609 28.5343 3.12417C28.5064 3.12215 28.4789 3.12215 28.451 3.12417C28.4227 3.13105 28.4017 3.14965 28.3742 3.15854C28.3184 3.17795 28.2646 3.20262 28.2136 3.23173C28.1623 3.26165 28.1138 3.29683 28.0697 3.33605C28.0483 3.35546 28.022 3.36436 28.0014 3.38538C27.9625 3.43512 23.7521 7.95127 20.3661 7.95127C19.762 7.93469 19.1607 8.04225 18.5995 8.26747V6.48511C18.6856 3.80186 20.9245 1.69319 23.6077 1.7684H23.6089ZM19.0507 16.1769C19.0507 16.1636 19.0422 16.1539 19.0402 16.1413C19.0325 16.109 19.0232 16.0774 19.0119 16.0459C18.9961 15.9666 18.969 15.8898 18.9318 15.8182C18.9157 15.7952 18.8983 15.7734 18.8797 15.7527C18.8336 15.6832 18.7782 15.6201 18.7151 15.5655C18.6844 15.5461 18.6528 15.5287 18.6197 15.5134C18.555 15.4697 18.4846 15.4353 18.4106 15.4111C18.4042 15.4074 18.3977 15.4042 18.3912 15.4014C17.7657 15.236 16.8947 13.5393 16.8947 12.0942C16.8947 11.5686 17.0059 11.2883 17.2295 11.1226C17.3395 11.7137 17.5445 12.2834 17.8365 12.8095C18.094 13.1997 18.6112 13.3214 19.0159 13.0873C19.4203 12.8532 19.5723 12.3441 19.3629 11.9264C19.1199 11.5083 18.7673 10.55 19.0095 10.125C19.1603 9.86545 19.6532 9.71786 20.3661 9.71786C23.4039 9.71786 26.6581 7.09971 28.2727 5.60161C28.9714 7.24488 30.5241 9.71786 33.5328 9.71786H33.6319C33.8078 9.70735 33.9845 9.73323 34.1503 9.79388C34.1676 9.83593 34.1757 9.88122 34.1733 9.92651C34.1652 9.95562 34.1592 9.98514 34.1547 10.0147C34.1547 10.0316 34.1636 10.0458 34.1644 10.0616C34.048 10.6135 33.8276 11.1387 33.515 11.6082C33.2502 12.017 33.3658 12.5633 33.7738 12.8289C34.1818 13.0946 34.7277 12.9801 34.9945 12.573C35.3018 12.0946 35.5489 11.5807 35.7304 11.0421C36.0475 11.186 36.2039 11.4663 36.2039 12.0906C36.2039 13.5357 35.333 15.2324 34.7074 15.3977C34.6998 15.3977 34.6945 15.4058 34.6864 15.4082C34.6173 15.4317 34.5514 15.4636 34.4903 15.5037C34.4531 15.5211 34.4171 15.5413 34.3824 15.5639C34.3217 15.6149 34.2687 15.6743 34.2243 15.7402C34.2036 15.7629 34.1842 15.7863 34.166 15.811C34.1296 15.8829 34.1034 15.9594 34.0876 16.0382C34.0755 16.0693 34.0658 16.1017 34.0585 16.1344C34.0585 16.1466 34.0496 16.1563 34.0476 16.1696C33.9064 17.9944 33.0144 19.6786 31.5843 20.8204C31.5649 20.837 31.5402 20.8475 31.5224 20.8661C30.4982 21.6546 29.2427 22.0828 27.9504 22.0844H25.1483C23.8568 22.0824 22.6017 21.6542 21.5779 20.8661C21.5605 20.8475 21.5358 20.837 21.516 20.8204C20.0871 19.6806 19.1943 17.9993 19.0507 16.1769ZM25.1483 23.851H27.9504C29.1145 23.8498 30.2633 23.5809 31.3069 23.065C31.4314 24.1818 31.8503 25.2456 32.5203 26.1477L28.1833 28.8601C28.1586 28.875 28.1453 28.9045 28.1227 28.9219C28.0555 28.9721 27.9957 29.0315 27.946 29.0986C27.931 29.1201 27.9051 29.1314 27.8918 29.1544L27.3621 30.0331H25.7277L25.198 29.1544C25.1847 29.1314 25.1588 29.1201 25.1438 29.0986C25.0941 29.0315 25.0343 28.9721 24.9671 28.9219C24.9445 28.9045 24.9311 28.875 24.9065 28.8601L20.5771 26.1477C21.2467 25.2452 21.6644 24.1814 21.7882 23.065C22.833 23.5813 23.983 23.8502 25.1483 23.851ZM7.11642 40.6338C6.34816 40.6338 6.23332 39.8708 6.23332 39.4147V33.9649C6.23332 31.5801 8.93436 29.5163 11.3511 29.2693L14.9223 28.8965L16.1625 30.0343H13.1424C11.6677 30.0391 10.2626 30.6618 9.26835 31.7503C8.22756 32.8991 7.72011 34.4336 7.87093 35.9762L8.55994 40.6338H7.11642ZM38.9155 51.2334H14.1828C12.7728 51.214 11.618 50.1073 11.5384 48.6994L11.5214 48.5837H41.5789L41.5543 48.7507C41.4568 50.1396 40.3081 51.2209 38.9155 51.2334ZM46.8654 39.4147C46.8654 39.8708 46.7505 40.6338 45.9823 40.6338H44.5379L45.2338 35.9248C45.3709 34.3984 44.8618 32.8841 43.8303 31.7503C42.8356 30.6618 41.4309 30.0391 39.9563 30.0343H36.9362L38.1727 28.8973L41.7459 29.2701C44.1643 29.5163 46.8654 31.5765 46.8654 33.9649V39.4147Z" fill="black"/>
<path d="M28.3159 39.75H24.7827C24.2946 39.75 23.8992 40.1459 23.8992 40.6335C23.8992 41.1211 24.2946 41.517 24.7827 41.517H28.3159C28.8035 41.517 29.1994 41.1211 29.1994 40.6335C29.1994 40.1459 28.8035 39.75 28.3159 39.75Z" fill="black"/>
</g>
<defs>
<clipPath id="clip0_20_10760">
<rect width="53" height="53" fill="white"/>
</clipPath>
</defs>
</svg>
