<svg width="53" height="53" viewBox="0 0 53 53" fill="none" xmlns="http://www.w3.org/2000/svg">
<path d="M50.7286 7.82536C50.542 7.60612 50.2555 7.4997 49.9707 7.54359C49.6863 7.5878 49.4452 7.77651 49.334 8.04192L47.4951 12.4319L45.7488 12.6548L44.6826 11.2539L46.5216 6.86391C46.6328 6.59839 46.5981 6.29426 46.4301 6.06053C46.2621 5.82689 45.9866 5.69719 45.6977 5.71799C43.4142 5.88414 41.4468 7.29816 40.563 9.40822C39.6939 11.4829 40.0481 13.837 41.4499 15.5552L34.5209 32.0968C33.2087 31.3985 31.817 30.8626 30.3749 30.5003C32.9387 29.1629 34.8426 26.7129 35.4159 23.7471H35.4658C36.6307 23.7471 37.5783 22.7994 37.5783 21.6347C37.5783 20.6772 36.9381 19.8666 36.0634 19.6082C36.0588 15.3729 33.4683 11.6314 29.5567 10.1231C29.4807 9.73388 29.3014 9.37831 29.0242 9.07345C28.0842 8.03943 26.3857 7.95849 25.8848 7.95849C25.8835 7.95849 25.8824 7.95849 25.8809 7.95849C25.3791 7.95849 23.6807 8.03943 22.7407 9.07335C22.4636 9.3781 22.2843 9.73378 22.2083 10.123C18.2967 11.6313 15.7062 15.3728 15.7016 19.6081C14.8269 19.8665 14.1866 20.6771 14.1866 21.6346C14.1866 22.7993 15.1343 23.747 16.2992 23.747H16.349C16.9223 26.7128 18.8264 29.1628 21.3901 30.5002C20.0424 30.8386 18.7389 31.3289 17.5031 31.9615L15.5504 27.5664C15.1984 26.7741 14.3269 26.3734 13.5139 26.5824L8.00012 14.1718L8.02982 11.8667C8.03221 11.6836 7.97382 11.5049 7.86379 11.3586L5.08294 7.65757C4.85117 7.34909 4.437 7.24185 4.08464 7.39826L1.3186 8.6272C0.966021 8.78382 0.76841 9.1631 0.841906 9.54186L1.72417 14.0864C1.75905 14.2661 1.85253 14.4292 1.99 14.5502L3.72057 16.0732L9.23444 28.4838C8.53426 28.9471 8.24762 29.8623 8.59957 30.6547L11.4102 36.9811C9.28909 39.6781 7.95498 42.9218 7.58626 46.3676C7.56121 46.6013 7.63657 46.8345 7.7937 47.0092C7.95084 47.184 8.17475 47.2839 8.40962 47.2839H43.3552C43.5901 47.2839 43.814 47.1841 43.9711 47.0092C44.1282 46.8345 44.2036 46.6013 44.1785 46.3676C43.7469 42.3335 41.9927 38.5761 39.2006 35.6493L46.6969 17.753C48.9049 17.5468 50.8313 16.148 51.7002 14.0734C52.5841 11.9633 52.2118 9.56919 50.7286 7.82536ZM37.4103 36.1859V45.6277H35.529L35.5338 34.6461C36.198 35.1133 36.8266 35.6282 37.4151 36.1859H37.4103ZM14.2098 36.3187C14.7956 35.7506 15.4231 35.2261 16.0863 34.7488L16.0911 45.6278H14.2098V36.3187ZM17.7422 33.6989C20.1577 32.3591 22.9361 31.6009 25.8824 31.6009C28.7702 31.6009 31.4964 32.3295 33.8781 33.6199L33.8727 45.6277H17.7475L17.7422 33.6989ZM23.9663 10.1876C24.273 9.85023 25.0598 9.61484 25.8811 9.61484H25.8846C26.7052 9.61484 27.492 9.85023 27.7987 10.1876C27.9147 10.315 27.9563 10.4507 27.9381 10.6409C27.937 10.6521 27.9369 10.6632 27.9363 10.6744L27.9344 10.6742L27.4718 14.2367C27.4237 14.6073 27.1176 14.8762 26.744 14.8762H25.021C24.6474 14.8762 24.3412 14.6072 24.2931 14.2367L23.8304 10.6742L23.8286 10.6744C23.828 10.6632 23.828 10.6522 23.8268 10.6409C23.8087 10.4507 23.8503 10.315 23.9663 10.1876ZM22.3162 11.8747L22.6506 14.4501C22.8049 15.6372 23.824 16.5324 25.021 16.5324H26.744C27.9411 16.5324 28.9602 15.6372 29.1143 14.45L29.4487 11.8746C32.4221 13.238 34.3677 16.1916 34.4051 19.5221H17.3598C17.3973 16.1917 19.3428 13.2381 22.3162 11.8747ZM15.843 21.6347C15.843 21.3874 16.052 21.1785 16.2993 21.1785H16.5582H16.5583H35.2068H35.4658C35.7131 21.1785 35.922 21.3874 35.922 21.6347C35.922 21.882 35.713 22.0909 35.4658 22.0909H16.2993C16.0519 22.0909 15.843 21.882 15.843 21.6347ZM18.0424 23.7471H33.7227C32.878 27.3383 29.6591 29.9447 25.8825 29.9447C22.106 29.9447 18.8871 27.3383 18.0424 23.7471ZM4.95086 14.9497L3.29626 13.4935L2.59339 9.87311L4.15482 9.17935L6.37016 12.1277L6.34179 14.3316C6.34024 14.4511 6.36457 14.5694 6.41301 14.6785L11.9898 27.2309L10.7373 27.7874L5.16047 15.2351C5.11213 15.126 5.0405 15.0286 4.95086 14.9497ZM10.1132 29.9825C10.0924 29.9356 10.1151 29.8763 10.1619 29.8555L13.91 28.1903C13.9569 28.1696 14.0161 28.1924 14.037 28.2391L16.0574 32.7865C15.1729 33.3458 14.3314 33.9822 13.5443 34.694C13.2209 34.9864 12.9094 35.2892 12.6096 35.6014L10.1132 29.9825ZM12.5536 38.1845V45.6277H9.35638C9.80833 42.8438 10.9336 40.3096 12.5536 38.1845ZM39.0665 45.6277V37.998C40.7641 40.1606 41.9432 42.7617 42.4084 45.6276L39.0665 45.6277ZM50.1726 13.4335C49.4891 15.0656 47.9039 16.1213 46.1341 16.1232C45.8007 16.1235 45.5 16.3238 45.3712 16.6313L37.9173 34.4261C37.295 33.8876 36.6407 33.395 35.9598 32.9487L43.1794 15.7134C43.3082 15.4058 43.24 15.0511 43.0064 14.8132C41.7664 13.5506 41.407 11.6803 42.0906 10.0482C42.5338 8.99002 43.3527 8.17297 44.3633 7.72941L42.9702 11.0551C42.8559 11.3279 42.8959 11.6411 43.075 11.8766L44.7203 14.0384C44.8994 14.2739 45.1907 14.396 45.4842 14.3583L48.179 14.0144C48.4724 13.9769 48.7237 13.7858 48.838 13.5128L50.231 10.1872C50.6237 11.2186 50.6158 12.3753 50.1726 13.4335Z" fill="black"/>
</svg>
