<svg width="25" height="31" viewBox="0 0 25 31" fill="none" xmlns="http://www.w3.org/2000/svg">
<path d="M9.98667 28.5813C10.7947 29.2479 11.6373 29.8573 12.5 30.4519C13.3645 29.8651 14.2031 29.241 15.0133 28.5813C16.364 27.4722 17.6351 26.2697 18.8173 24.9826C21.5427 22.0026 24.5 17.6826 24.5 12.8333C24.5 11.2574 24.1896 9.69696 23.5866 8.24105C22.9835 6.78514 22.0996 5.46227 20.9853 4.34797C19.871 3.23367 18.5481 2.34975 17.0922 1.7467C15.6363 1.14364 14.0759 0.833252 12.5 0.833252C10.9241 0.833252 9.36371 1.14364 7.9078 1.7467C6.45189 2.34975 5.12902 3.23367 4.01472 4.34797C2.90042 5.46227 2.0165 6.78514 1.41345 8.24105C0.810389 9.69696 0.5 11.2574 0.5 12.8333C0.5 17.6826 3.45733 22.0013 6.18267 24.9826C7.36483 26.2702 8.63595 27.4718 9.98667 28.5813ZM12.5 17.1666C11.3507 17.1666 10.2485 16.71 9.43587 15.8974C8.62321 15.0847 8.16667 13.9825 8.16667 12.8333C8.16667 11.684 8.62321 10.5818 9.43587 9.76912C10.2485 8.95646 11.3507 8.49992 12.5 8.49992C13.6493 8.49992 14.7515 8.95646 15.5641 9.76912C16.3768 10.5818 16.8333 11.684 16.8333 12.8333C16.8333 13.9825 16.3768 15.0847 15.5641 15.8974C14.7515 16.71 13.6493 17.1666 12.5 17.1666Z" fill="url(#paint0_linear_4893_8125)"/>
<defs>
<linearGradient id="paint0_linear_4893_8125" x1="4.27402" y1="32.3828" x2="24.2058" y2="29.6047" gradientUnits="userSpaceOnUse">
<stop stop-color="#034D92"/>
<stop offset="1" stop-color="#0487D9"/>
</linearGradient>
</defs>
</svg>
