<svg width="12" height="12" viewBox="0 0 12 12" fill="none" xmlns="http://www.w3.org/2000/svg">
<path d="M9.51396 1.57222H8.42833V1.08655C8.42833 0.92942 8.25693 0.858003 8.09979 0.858003H7.25701C7.05704 0.286618 6.55707 0.000924906 5.98568 0.000924906C5.42059 -0.0203195 4.90659 0.326181 4.71435 0.858003H3.88585C3.72871 0.858003 3.57158 0.92942 3.57158 1.08655V1.57222H2.48593C1.84258 1.57908 1.31625 2.0866 1.28601 2.72927V10.9143C1.28601 11.5429 1.8574 12 2.48593 12H9.51396C10.1425 12 10.7139 11.5429 10.7139 10.9143V2.72929C10.6836 2.0866 10.1573 1.57908 9.51396 1.57222ZM4.14294 1.42939H4.9286C5.06575 1.41266 5.17591 1.30832 5.20002 1.17227C5.28462 0.803867 5.60782 0.539419 5.98568 0.529466C6.36004 0.540813 6.67838 0.806082 6.75705 1.17227C6.78266 1.31302 6.9001 1.4187 7.04274 1.42939H7.85697V2.57216H4.14294V1.42939ZM10.1425 10.9144C10.1425 11.2286 9.82822 11.4286 9.51396 11.4286H2.48593C2.17166 11.4286 1.8574 11.2286 1.8574 10.9144V2.72929C1.88654 2.40218 2.15755 2.14962 2.48593 2.14363H3.57155V2.87215C3.58665 3.03221 3.72527 3.15194 3.88582 3.14357H8.09977C8.26327 3.15251 8.40624 3.03443 8.4283 2.87215V2.14361H9.51393C9.84228 2.14962 10.1133 2.40215 10.1425 2.72927V10.9144H10.1425Z" fill="#6C757D"/>
<path d="M4.90002 6.38613C4.79287 6.27318 4.61498 6.26681 4.50004 6.37185L3.58581 7.2432L3.20013 6.84322C3.09298 6.73028 2.9151 6.72393 2.80015 6.82895C2.6895 6.94488 2.6895 7.12728 2.80015 7.2432L3.38581 7.84316C3.4365 7.89992 3.50972 7.93131 3.58579 7.92888C3.66114 7.92781 3.73302 7.897 3.78576 7.84316L4.89996 6.78611C5.01042 6.68478 5.0178 6.51307 4.91645 6.40264C4.91125 6.39687 4.90576 6.39138 4.90002 6.38613Z" fill="black"/>
<path d="M8.99974 7.00037H5.71428C5.55649 7.00037 5.42859 7.12827 5.42859 7.28606C5.42859 7.44385 5.55649 7.57175 5.71428 7.57175H8.99974C9.15752 7.57175 9.28543 7.44385 9.28543 7.28606C9.28543 7.12827 9.15752 7.00037 8.99974 7.00037Z" fill="black"/>
<path d="M4.90002 4.1006C4.79287 3.98765 4.61498 3.98128 4.50004 4.08633L3.58581 4.95768L3.20013 4.5577C3.09298 4.44475 2.9151 4.43838 2.80015 4.54343C2.6895 4.65936 2.6895 4.84175 2.80015 4.95768L3.38581 5.55764C3.4365 5.6144 3.50972 5.64579 3.58579 5.64335C3.66114 5.64229 3.73302 5.61147 3.78576 5.55764L4.89996 4.50058C5.01042 4.39926 5.0178 4.22755 4.91645 4.11712C4.91125 4.11135 4.90576 4.10585 4.90002 4.1006Z" fill="black"/>
<path d="M8.99974 4.71484H5.71428C5.55649 4.71484 5.42859 4.84275 5.42859 5.00054C5.42859 5.15833 5.55649 5.28623 5.71428 5.28623H8.99974C9.15752 5.28623 9.28543 5.15833 9.28543 5.00054C9.28543 4.84275 9.15752 4.71484 8.99974 4.71484Z" fill="black"/>
<path d="M4.90002 8.6717C4.79287 8.55875 4.61498 8.55241 4.50004 8.65743L3.58581 9.52878L3.20013 9.1288C3.09298 9.01585 2.9151 9.0095 2.80015 9.11452C2.6895 9.23045 2.6895 9.41285 2.80015 9.52878L3.38581 10.1287C3.4365 10.1855 3.50972 10.2169 3.58579 10.2144C3.66114 10.2134 3.73302 10.1826 3.78576 10.1287L4.89996 9.07168C5.01042 8.97035 5.0178 8.79865 4.91645 8.68821C4.91125 8.68247 4.90576 8.67698 4.90002 8.6717Z" fill="black"/>
<path d="M8.99974 9.28595H5.71428C5.55649 9.28595 5.42859 9.41385 5.42859 9.57164C5.42859 9.72943 5.55649 9.85734 5.71428 9.85734H8.99974C9.15752 9.85734 9.28543 9.72943 9.28543 9.57164C9.28543 9.41385 9.15752 9.28595 8.99974 9.28595Z" fill="black"/>
</svg>
