<svg width="33" height="33" viewBox="0 0 33 33" fill="none" xmlns="http://www.w3.org/2000/svg">
<g clip-path="url(#clip0_20_15985)">
<path d="M16.5 0C16.1962 0 15.95 0.246262 15.95 0.55V3.85C15.95 4.15374 16.1962 4.4 16.5 4.4C16.8037 4.4 17.05 4.15374 17.05 3.85V0.55C17.05 0.246262 16.8037 0 16.5 0Z" fill="#777C81"/>
<path d="M14.3677 1.23861L14.272 0.69686C14.2193 0.39766 13.934 0.197804 13.6348 0.250535C13.3356 0.303267 13.1358 0.58851 13.1885 0.88771L13.2842 1.42946C13.3306 1.69209 13.5587 1.88355 13.8254 1.88376C13.8575 1.88369 13.8895 1.88094 13.9211 1.87551C14.2203 1.82292 14.4203 1.53781 14.3677 1.23861Z" fill="#777C81"/>
<path d="M11.7496 1.84086L11.5615 1.32386C11.5592 1.31712 11.5568 1.31045 11.5542 1.30378C11.4448 1.0204 11.1264 0.87939 10.843 0.98884C10.5596 1.09829 10.4186 1.41667 10.5281 1.70006L10.7156 2.21651C10.7945 2.43403 11.0012 2.57896 11.2326 2.57896C11.2968 2.57896 11.3605 2.56775 11.4208 2.54582C11.7063 2.44194 11.8535 2.12631 11.7496 1.84086Z" fill="#777C81"/>
<path d="M7.02131 4.34939L6.66766 3.92809C6.47351 3.70623 6.13897 3.67688 5.90921 3.86161C5.67244 4.05191 5.63476 4.39806 5.82506 4.63484L6.17871 5.05614C6.28314 5.18085 6.43735 5.2529 6.60001 5.25304C6.7294 5.25304 6.85466 5.20746 6.95373 5.12427C7.18638 4.92895 7.21663 4.58204 7.02131 4.34939Z" fill="#777C81"/>
<path d="M5.0561 6.1787L4.6348 5.82505C4.40504 5.64039 4.0705 5.66968 3.87635 5.89153C3.67629 6.12013 3.69946 6.46759 3.92806 6.66765L4.34935 7.0213C4.44829 7.10435 4.57327 7.14986 4.70246 7.15C4.86505 7.15 5.01932 7.07809 5.12382 6.95358C5.31914 6.72086 5.28875 6.37395 5.0561 6.1787Z" fill="#777C81"/>
<path d="M2.21652 10.7157L1.70007 10.5281C1.69347 10.5256 1.68674 10.5231 1.68 10.5208C1.39262 10.4224 1.07988 10.5757 0.981568 10.8631C0.883187 11.1505 1.0365 11.4632 1.32387 11.5616L1.84087 11.7497C1.90096 11.7717 1.96442 11.7831 2.02842 11.7832C2.26114 11.784 2.46918 11.6383 2.54797 11.4193C2.65075 11.1335 2.50239 10.8184 2.21652 10.7157Z" fill="#777C81"/>
<path d="M1.42943 13.2842L0.88768 13.1885C0.58848 13.1357 0.303236 13.3356 0.250505 13.6348C0.197774 13.934 0.39763 14.2192 0.69683 14.272L1.23858 14.3677C1.2702 14.3731 1.30217 14.3758 1.33428 14.3759C1.60151 14.3761 1.83017 14.184 1.8763 13.9208C1.92869 13.6216 1.72863 13.3365 1.42943 13.2842Z" fill="#777C81"/>
<path d="M1.87575 19.0787C1.82302 18.7795 1.53777 18.5796 1.23857 18.6323L0.696824 18.728C0.433787 18.7741 0.241906 19.0025 0.241699 19.2695C0.241562 19.5733 0.487618 19.8197 0.791424 19.8198C0.823668 19.8197 0.855912 19.817 0.887674 19.8115L1.42942 19.7158C1.72862 19.6631 1.92848 19.3779 1.87575 19.0787Z" fill="#777C81"/>
<path d="M2.54563 21.5795C2.44189 21.294 2.12633 21.1466 1.84081 21.2503L1.32381 21.4384C1.10614 21.5174 0.961288 21.7243 0.961426 21.9559C0.961701 22.2597 1.2081 22.5057 1.51191 22.5054C1.57605 22.5053 1.63971 22.494 1.70001 22.4719L2.21646 22.2843C2.50198 22.1806 2.64938 21.865 2.54563 21.5795Z" fill="#777C81"/>
<path d="M5.12553 26.0293C4.92553 25.8007 4.578 25.7775 4.34941 25.9775L3.92811 26.3312C3.80353 26.4357 3.73162 26.59 3.73169 26.7526C3.73176 27.0563 3.97802 27.3025 4.28176 27.3025C4.41094 27.3024 4.53593 27.2569 4.63486 27.1738L5.05616 26.8202C5.06214 26.8154 5.06798 26.8105 5.07376 26.8054C5.30235 26.6054 5.32552 26.258 5.12553 26.0293Z" fill="#777C81"/>
<path d="M6.95305 27.8597C6.71627 27.6694 6.37011 27.7071 6.17981 27.9438L5.82616 28.3652C5.74339 28.464 5.69794 28.5889 5.69788 28.7178C5.69767 29.0216 5.94373 29.268 6.24746 29.2682C6.40999 29.2682 6.56426 29.1964 6.66876 29.0719L7.02241 28.6506C7.0275 28.6448 7.03238 28.6389 7.0372 28.6329C7.2275 28.3962 7.18982 28.05 6.95305 27.8597Z" fill="#777C81"/>
<path d="M11.4205 30.4543C11.135 30.3506 10.8194 30.498 10.7157 30.7835L10.5281 31.3C10.5062 31.3603 10.4949 31.424 10.495 31.4882C10.4951 31.7919 10.7414 32.0381 11.0451 32.038C11.2762 32.0379 11.4825 31.8933 11.5616 31.6761L11.7497 31.1592C11.8534 30.8736 11.706 30.5581 11.4205 30.4543Z" fill="#777C81"/>
<path d="M13.9213 31.1242C13.6221 31.0715 13.3369 31.2713 13.2841 31.5705L13.1884 32.1123C13.1359 32.4115 13.3358 32.6967 13.635 32.7492C13.6666 32.7551 13.6986 32.758 13.7307 32.758C13.9976 32.7577 14.2257 32.566 14.2719 32.3032L14.3676 31.7614C14.4204 31.4622 14.2205 31.177 13.9213 31.1242Z" fill="#777C81"/>
<path d="M19.8115 32.1123L19.7158 31.5705C19.6631 31.2713 19.3779 31.0715 19.0787 31.1242C18.7795 31.177 18.5796 31.4622 18.6323 31.7614L18.728 32.3032C18.7742 32.566 19.0024 32.7577 19.2692 32.758C19.3013 32.758 19.3334 32.7551 19.3649 32.7492H19.365C19.6642 32.6966 19.8641 32.4115 19.8115 32.1123Z" fill="#777C81"/>
<path d="M22.4719 31.3L22.2844 30.7835C22.1806 30.498 21.8651 30.3506 21.5796 30.4543C21.294 30.5581 21.1466 30.8736 21.2504 31.1592L21.4385 31.6761C21.5175 31.8933 21.7239 32.0379 21.9549 32.038C22.0191 32.038 22.0829 32.0268 22.1432 32.0049C22.4286 31.901 22.5758 31.5854 22.4719 31.3Z" fill="#777C81"/>
<path d="M27.1738 28.3651L26.8202 27.9438C26.8153 27.9379 26.8105 27.932 26.8054 27.9262C26.6054 27.6976 26.2578 27.6745 26.0293 27.8745C25.8007 28.0745 25.7775 28.422 25.9776 28.6506L26.3312 29.0719C26.4354 29.1968 26.5898 29.2688 26.7525 29.2682C26.8815 29.2682 27.0063 29.2227 27.1052 29.1399C27.3381 28.9449 27.3688 28.598 27.1738 28.3651Z" fill="#777C81"/>
<path d="M29.0719 26.3312L28.6506 25.9776C28.6448 25.9726 28.6389 25.9676 28.633 25.9628C28.3962 25.7725 28.05 25.8102 27.8597 26.047C27.6694 26.2837 27.7071 26.6299 27.9439 26.8202L28.3652 27.1739C28.4641 27.2569 28.5891 27.3024 28.7183 27.3025C28.8809 27.3025 29.0351 27.2306 29.1396 27.1061C29.3349 26.8734 29.3045 26.5265 29.0719 26.3312Z" fill="#777C81"/>
<path d="M31.6762 21.4384L31.1592 21.2503C30.8737 21.1466 30.5581 21.294 30.4544 21.5795C30.3506 21.865 30.498 22.1806 30.7835 22.2843L31.3 22.4719C31.3603 22.494 31.4239 22.5053 31.4881 22.5054C31.7196 22.5057 31.9265 22.3608 32.0056 22.1431C32.1092 21.8575 31.9617 21.5421 31.6762 21.4384Z" fill="#777C81"/>
<path d="M32.3032 18.728L31.7615 18.6323C31.4623 18.5796 31.177 18.7795 31.1243 19.0787C31.0716 19.3779 31.2714 19.6631 31.5706 19.7158L32.1124 19.8115C32.1441 19.817 32.1764 19.8197 32.2086 19.8198C32.4756 19.8197 32.704 19.6277 32.7501 19.3647C32.8025 19.0655 32.6024 18.7804 32.3032 18.728Z" fill="#777C81"/>
<path d="M32.7495 13.6348C32.6968 13.3356 32.4116 13.1357 32.1124 13.1885L31.5706 13.2842C31.3074 13.3303 31.1154 13.559 31.1155 13.8262C31.1156 14.1299 31.3619 14.3761 31.6658 14.3759C31.6979 14.3758 31.7298 14.3731 31.7615 14.3677L32.3032 14.272C32.6024 14.2192 32.8023 13.934 32.7495 13.6348Z" fill="#777C81"/>
<path d="M32.0111 10.843C31.9017 10.5596 31.5833 10.4186 31.2999 10.5281L30.7835 10.7156C30.5645 10.7944 30.4187 11.0025 30.4196 11.2352C30.4207 11.5389 30.6678 11.7843 30.9716 11.7832C31.0356 11.783 31.099 11.7717 31.1591 11.7496L31.6761 11.5615C31.6828 11.5593 31.6895 11.5568 31.6961 11.5542C31.9795 11.4448 32.1205 11.1264 32.0111 10.843Z" fill="#777C81"/>
<path d="M29.1384 5.90921C28.9481 5.67244 28.6019 5.63476 28.3652 5.82506L27.9439 6.17871C27.8193 6.28321 27.7474 6.43749 27.7474 6.60008C27.7475 6.90382 27.9938 7.15001 28.2975 7.15001C28.4267 7.14987 28.5517 7.10436 28.6506 7.02131L29.0719 6.66766C29.2938 6.47351 29.3231 6.13897 29.1384 5.90921Z" fill="#777C81"/>
<path d="M27.1085 3.87639C26.8799 3.67639 26.5325 3.69949 26.3324 3.92809L25.9787 4.34939C25.8956 4.44846 25.85 4.57372 25.85 4.70311C25.85 5.00684 26.0963 5.25311 26.4 5.25304C26.5627 5.2529 26.7169 5.18085 26.8213 5.05614L27.175 4.63484C27.3597 4.40508 27.3304 4.07047 27.1085 3.87639Z" fill="#777C81"/>
<path d="M22.137 0.981606C21.8496 0.883225 21.5368 1.03647 21.4385 1.32384L21.2504 1.84084C21.2285 1.90121 21.2172 1.96487 21.2173 2.02908C21.2174 2.33282 21.4637 2.57901 21.7674 2.57894C21.9988 2.57894 22.2055 2.43402 22.2844 2.21649L22.472 1.70004C22.4745 1.69344 22.4769 1.68677 22.4793 1.68004C22.5776 1.39266 22.4243 1.07992 22.137 0.981606Z" fill="#777C81"/>
<path d="M19.3653 0.250535C19.0661 0.197804 18.7808 0.39766 18.7281 0.69686L18.6324 1.23861C18.5799 1.53781 18.7798 1.82299 19.079 1.87551C19.1106 1.88094 19.1426 1.88369 19.1747 1.88376C19.4414 1.88355 19.6695 1.69209 19.7159 1.42946L19.8116 0.88771C19.8643 0.58851 19.6645 0.303267 19.3653 0.250535Z" fill="#777C81"/>
<path d="M10.1008 4.31694L9.00078 2.41174C8.84857 2.15214 8.51603 2.06304 8.25443 2.21175C7.99037 2.3619 7.89803 2.69768 8.04818 2.96174L9.14818 4.86694C9.2465 5.03731 9.42834 5.14215 9.62503 5.14194C9.72142 5.14188 9.81602 5.11644 9.89948 5.06824C10.1625 4.91638 10.2527 4.57998 10.1008 4.31694Z" fill="#777C81"/>
<path d="M4.86643 9.1487L2.96123 8.0487C2.69963 7.89999 2.36709 7.98909 2.21488 8.24869C2.06129 8.51076 2.14915 8.84771 2.41123 9.00129L4.31643 10.1013C4.40003 10.1496 4.4949 10.175 4.59143 10.175C4.78791 10.175 4.96948 10.0702 5.06773 9.9C5.2196 9.63696 5.12946 9.30056 4.86643 9.1487Z" fill="#777C81"/>
<path d="M5.0702 23.0949C4.91655 22.8329 4.5796 22.745 4.31753 22.8987L2.41233 23.9987C2.24217 24.0969 2.13733 24.2785 2.13733 24.475C2.13733 24.7787 2.38352 25.025 2.68733 25.025C2.78392 25.0252 2.8788 24.9998 2.96233 24.9513L4.86753 23.8513C4.86966 23.8501 4.87179 23.8488 4.87392 23.8476C5.136 23.6939 5.22386 23.357 5.0702 23.0949Z" fill="#777C81"/>
<path d="M9.89928 27.9268C9.63521 27.7766 9.29944 27.869 9.14929 28.133L8.04929 30.0382C8.00109 30.1217 7.97572 30.2163 7.97559 30.3127C7.97524 30.6164 8.22123 30.863 8.52504 30.8632C8.72173 30.8634 8.90357 30.7586 9.00189 30.5882L10.1019 28.683C10.1031 28.681 10.1043 28.6788 10.1055 28.6767C10.2557 28.4127 10.1633 28.0769 9.89928 27.9268Z" fill="#777C81"/>
<path d="M24.9507 30.0383L23.8507 28.1331C23.6985 27.8735 23.366 27.7844 23.1045 27.9331C22.8404 28.0832 22.748 28.419 22.8981 28.6831L23.9981 30.5883C24.0964 30.7586 24.2783 30.8635 24.4749 30.8633C24.5713 30.8632 24.6659 30.8377 24.7494 30.7896C25.0124 30.6377 25.1026 30.3013 24.9507 30.0383Z" fill="#777C81"/>
<path d="M30.5877 23.9987L28.6825 22.8987C28.4209 22.75 28.0884 22.8391 27.9362 23.0986C27.7826 23.3606 27.8704 23.6976 28.1325 23.8513L30.0377 24.9513C30.1212 24.9998 30.2161 25.0252 30.3127 25.025C30.5091 25.025 30.6907 24.9202 30.789 24.75C30.9408 24.487 30.8507 24.1506 30.5877 23.9987Z" fill="#777C81"/>
<path d="M30.7888 8.25495C30.6387 7.99088 30.3029 7.89855 30.0388 8.0487L28.1336 9.1487C27.9635 9.24695 27.8586 9.42852 27.8586 9.625C27.8586 9.92874 28.1048 10.175 28.4086 10.175C28.5052 10.175 28.6 10.1496 28.6836 10.1013L30.5888 9.0013C30.8484 8.84909 30.9375 8.51655 30.7888 8.25495Z" fill="#777C81"/>
<path d="M24.7519 2.21554C24.4899 2.06188 24.1529 2.14974 23.9993 2.41175L22.8993 4.31695C22.8511 4.40041 22.8257 4.49501 22.8256 4.5914C22.8252 4.89514 23.0713 5.14168 23.375 5.14195C23.5717 5.14216 23.7536 5.03731 23.8519 4.86695L24.9519 2.96175C25.1006 2.70016 25.0115 2.36768 24.7519 2.21554Z" fill="#777C81"/>
<path d="M3.85 15.95H0.55C0.246262 15.95 0 16.1963 0 16.5C0 16.8037 0.246262 17.05 0.55 17.05H3.85C4.15374 17.05 4.4 16.8037 4.4 16.5C4.4 16.1963 4.15374 15.95 3.85 15.95Z" fill="#777C81"/>
<path d="M16.5 28.6C16.1962 28.6 15.95 28.8463 15.95 29.15V32.45C15.95 32.7537 16.1962 33 16.5 33C16.8037 33 17.05 32.7537 17.05 32.45V29.15C17.05 28.8463 16.8037 28.6 16.5 28.6Z" fill="#777C81"/>
<path d="M32.45 15.95H28.6C28.2963 15.95 28.05 16.1963 28.05 16.5C28.05 16.8037 28.2963 17.05 28.6 17.05H32.45C32.7538 17.05 33 16.8037 33 16.5C33 16.1963 32.7538 15.95 32.45 15.95Z" fill="#777C81"/>
<path d="M24.3259 8.70156C24.1111 8.48685 23.763 8.48685 23.5482 8.70156L17.6165 14.6333C17.2818 14.4418 16.902 14.3432 16.5165 14.3479C16.1535 14.3563 15.7983 14.455 15.483 14.635L12.661 11.8129C12.4462 11.5972 12.0973 11.5965 11.8816 11.8113C11.6659 12.026 11.6652 12.3749 11.88 12.5906L14.6795 15.3901C14.0325 16.4207 14.3436 17.7807 15.3742 18.4276C16.4049 19.0746 17.7648 18.7635 18.4118 17.7328C18.8613 17.0166 18.8613 16.1063 18.4118 15.3901L24.3259 9.47926C24.5406 9.26448 24.5406 8.91633 24.3259 8.70156ZM17.3719 17.3127C16.958 17.7574 16.2619 17.7823 15.8173 17.3685C15.8063 17.3582 15.7955 17.3478 15.785 17.3371C15.349 16.914 15.3386 16.2176 15.7616 15.7816C15.9646 15.5726 16.2421 15.4525 16.5335 15.4479C16.8259 15.4395 17.1089 15.5517 17.3162 15.7581C17.7608 16.1719 17.7858 16.868 17.3719 17.3127Z" fill="#777C81"/>
</g>
<defs>
<clipPath id="clip0_20_15985">
<rect width="33" height="33" fill="white"/>
</clipPath>
</defs>
</svg>
