<svg width="21" height="24" viewBox="0 0 21 24" fill="none" xmlns="http://www.w3.org/2000/svg">
<g clip-path="url(#clip0_3127_7336)">
<path d="M8.82937 18.3577C8.95937 18.4877 9.12937 18.5577 9.29938 18.5577C9.47938 18.5577 9.64938 18.4877 9.76938 18.3577L13.8594 14.2577C13.9894 14.1277 14.0594 13.9577 14.0594 13.7877C14.0594 13.6177 13.9894 13.4377 13.8594 13.3177C13.5994 13.0577 13.1694 13.0677 12.9194 13.3177L9.29938 16.9377L7.72937 15.3677C7.60937 15.2477 7.43938 15.1977 7.27938 15.1977C7.11938 15.1977 6.94938 15.2577 6.81938 15.3777C6.68938 15.4977 6.60938 15.6677 6.60938 15.8477C6.60938 16.0277 6.66937 16.1977 6.78937 16.3277L8.82937 18.3677V18.3577Z" fill="white"/>
<path d="M20.6404 6.62773C20.7604 5.56773 20.4704 4.53773 19.8204 3.72773C19.1704 2.90773 18.2504 2.39773 17.2104 2.27773C16.9104 2.23773 14.5004 2.24773 14.5004 2.24773V1.09773C14.5004 0.727734 14.2004 0.427734 13.8304 0.427734C13.4604 0.427734 13.1604 0.727734 13.1604 1.09773V2.23773H7.51041V1.09773C7.51041 0.727734 7.21041 0.427734 6.84041 0.427734C6.47041 0.427734 6.17041 0.727734 6.17041 1.09773V2.23773C6.17041 2.23773 4.07041 2.23773 3.91041 2.23773C3.02041 2.23773 2.18041 2.52773 1.48041 3.07773C0.660407 3.73773 0.150407 4.65773 0.0304065 5.69773C-0.00959345 5.99773 0.0304065 19.5177 0.0304065 19.5177C-0.0895935 20.5777 0.200407 21.6077 0.850407 22.4177C1.50041 23.2377 2.42041 23.7477 3.46041 23.8677C3.76041 23.9077 16.2904 23.8677 16.2904 23.8677C17.3504 23.9877 18.3704 23.6977 19.1904 23.0477C20.0104 22.3977 20.5204 21.4777 20.6404 20.4377C20.6804 20.1377 20.6404 6.61773 20.6404 6.61773V6.62773ZM19.3004 19.5177C19.3004 21.5977 18.3704 22.5277 16.2904 22.5277H4.38041C2.30041 22.5277 1.37041 21.5977 1.37041 19.5177V9.13773H19.3004V19.5177ZM19.3004 7.79773H1.37041V6.62773C1.37041 4.54773 2.30041 3.61773 4.38041 3.61773H6.16041V4.78773C6.16041 5.15773 6.46041 5.45773 6.83041 5.45773C7.20041 5.45773 7.50041 5.15773 7.50041 4.78773V3.61773H13.1504V4.78773C13.1504 5.15773 13.4504 5.45773 13.8204 5.45773C14.1904 5.45773 14.4904 5.15773 14.4904 4.78773V3.61773H16.2804C18.3604 3.61773 19.2904 4.54773 19.2904 6.62773V7.79773H19.3004Z" fill="white"/>
</g>
<defs>
<clipPath id="clip0_3127_7336">
<rect width="20.67" height="23.47" fill="white" transform="translate(0 0.427734)"/>
</clipPath>
</defs>
</svg>
