<svg width="22" height="23" viewBox="0 0 22 23" fill="none" xmlns="http://www.w3.org/2000/svg">
<g clip-path="url(#clip0_3012_9802)">
<path d="M22 15.8727C22 14.386 21.4776 12.9394 20.5333 11.7841H20.5233V5.24442C20.5233 3.35583 18.9863 1.81885 17.0977 1.81885H16.4247V1.13574C16.4247 0.754007 16.1132 0.452637 15.7416 0.452637C15.3699 0.452637 15.0584 0.764052 15.0584 1.13574V1.81885H5.47489V1.13574C5.47489 0.754007 5.16347 0.452637 4.79178 0.452637C4.42009 0.452637 4.10868 0.764052 4.10868 1.13574V1.81885H3.43562C1.53699 1.82889 0 3.36588 0 5.25446V17.5604C0 19.449 1.53699 20.986 3.42557 20.986H11.3315C12.4767 21.9303 13.9333 22.4526 15.41 22.4627C19.0365 22.4627 21.99 19.5093 21.99 15.8828L22 15.8727ZM1.37626 5.25446C1.37626 4.1193 2.30046 3.20515 3.42557 3.20515H4.09863V3.88825C4.09863 4.26999 4.41005 4.57136 4.78174 4.57136C5.15342 4.57136 5.46484 4.25994 5.46484 3.88825V3.20515H15.0384V3.88825C15.0384 4.26999 15.3498 4.57136 15.7215 4.57136C16.0931 4.57136 16.4046 4.25994 16.4046 3.88825V3.20515H17.0776C18.2128 3.20515 19.1269 4.12935 19.1269 5.25446V5.92752H1.37626V5.25446ZM3.42557 19.6097C2.29041 19.6097 1.37626 18.6855 1.37626 17.5604V7.29373H19.1571V10.4581L19.0767 10.4079C16.063 8.38871 11.9744 9.19236 9.95525 12.2061C8.46849 14.4262 8.46849 17.2992 9.95525 19.5293L10.0055 19.6097H3.42557ZM15.4201 21.0864C12.547 21.0864 10.2164 18.7458 10.2164 15.8828C10.2164 13.0198 12.5571 10.6791 15.4201 10.6791C18.2831 10.6791 20.6237 13.0198 20.6237 15.8828C20.6237 18.7458 18.2831 21.0864 15.4201 21.0864Z" fill="white"/>
<path d="M17.3781 16.8571L16.1123 15.5813V12.9192C16.1123 12.5375 15.8009 12.2361 15.4292 12.2361C15.0575 12.2361 14.7461 12.5475 14.7461 12.9192V15.8626C14.7461 16.0434 14.8164 16.2242 14.947 16.3448L16.4237 17.8215C16.5543 17.942 16.7351 18.0023 16.916 18.0023C17.0968 18.0023 17.2676 17.9119 17.3881 17.7813C17.6292 17.5201 17.6292 17.1082 17.3881 16.8571H17.3781Z" fill="white"/>
</g>
<defs>
<clipPath id="clip0_3012_9802">
<rect width="22" height="22" fill="white" transform="translate(0 0.452637)"/>
</clipPath>
</defs>
</svg>
