<svg width="22" height="23" viewBox="0 0 22 23" fill="none" xmlns="http://www.w3.org/2000/svg">
<path d="M8.481 7.78964H1.606C0.726 7.78964 0 7.07464 0 6.18364V2.05864C0 1.16764 0.715 0.452637 1.606 0.452637H8.481C9.361 0.452637 10.087 1.16764 10.087 2.05864V6.18364C10.087 7.06364 9.372 7.78964 8.481 7.78964ZM1.606 1.82764C1.485 1.82764 1.375 1.92664 1.375 2.05864V6.18364C1.375 6.31564 1.474 6.41464 1.606 6.41464H8.481C8.613 6.41464 8.712 6.31564 8.712 6.18364V2.05864C8.712 1.92664 8.613 1.82764 8.481 1.82764H1.606ZM8.481 22.4526H1.606C0.726 22.4526 0 21.7376 0 20.8466V11.2216C0 10.3416 0.715 9.61564 1.606 9.61564H8.481C9.361 9.61564 10.087 10.3306 10.087 11.2216V20.8466C10.087 21.7266 9.372 22.4526 8.481 22.4526ZM1.606 10.9906C1.474 10.9906 1.375 11.0896 1.375 11.2216V20.8466C1.375 20.9676 1.474 21.0776 1.606 21.0776H8.481C8.613 21.0776 8.712 20.9786 8.712 20.8466V11.2216C8.712 11.0896 8.613 10.9906 8.481 10.9906H1.606ZM20.394 22.4526H13.519C12.639 22.4526 11.913 21.7376 11.913 20.8466V16.7216C11.913 15.8416 12.628 15.1156 13.519 15.1156H20.394C21.274 15.1156 22 15.8306 22 16.7216V20.8466C22 21.7266 21.285 22.4526 20.394 22.4526ZM13.519 16.4906C13.387 16.4906 13.288 16.5896 13.288 16.7216V20.8466C13.288 20.9786 13.387 21.0776 13.519 21.0776H20.394C20.515 21.0776 20.625 20.9786 20.625 20.8466V16.7216C20.625 16.5896 20.526 16.4906 20.394 16.4906H13.519ZM20.394 13.2786H13.519C12.639 13.2786 11.913 12.5636 11.913 11.6726V2.05864C11.913 1.17864 12.628 0.452637 13.519 0.452637H20.394C21.274 0.452637 22 1.16764 22 2.05864V11.6836C22 12.5636 21.285 13.2896 20.394 13.2896V13.2786ZM13.519 1.82764C13.387 1.82764 13.288 1.92664 13.288 2.05864V11.6836C13.288 11.8156 13.387 11.9146 13.519 11.9146H20.394C20.526 11.9146 20.625 11.8156 20.625 11.6836V2.05864C20.625 1.93764 20.526 1.82764 20.394 1.82764H13.519Z" fill="white"/>
</svg>
