<svg width="24" height="24" viewBox="0 0 24 24" fill="none" xmlns="http://www.w3.org/2000/svg">
<g clip-path="url(#clip0_3127_7341)">
<path d="M23.23 15.9679C22.64 14.3879 21.49 12.9779 20.63 12.0679L20.57 12.0079L20.63 11.9379C20.83 11.6979 20.95 11.3979 20.95 11.1079C20.95 10.6979 20.75 10.3079 20.4 10.0579L20.32 9.99795L20.38 9.91795C20.38 9.91795 20.44 9.82795 20.48 9.77795C20.51 9.73795 20.54 9.68795 20.58 9.63795V9.61795C20.89 9.17795 21.39 8.44795 20.97 7.89795C20.8 7.67795 20.56 7.57795 20.23 7.57795C19.9 7.57795 19.43 7.68795 18.76 7.93795L18.7 7.95795L18.65 7.90795C18.65 7.90795 18.62 7.85795 18.6 7.82795C18.41 7.51795 18.04 6.92795 17.14 6.79795H17.09L17.07 6.74795C17.04 6.69795 17.01 6.63795 16.98 6.58795C16.95 6.53795 16.92 6.47795 16.89 6.42795L16.85 6.35795L16.9 6.30795L17.61 5.60795C17.72 5.49795 17.78 5.35795 17.78 5.20795C17.78 5.04795 17.72 4.90795 17.61 4.80795L15.46 2.65795C15.36 2.55795 15.21 2.49795 15.06 2.49795C14.91 2.49795 14.76 2.55795 14.66 2.65795L13.95 3.35795L13.9 3.40795L13.83 3.36795C13.2 3.00795 12.54 2.73795 11.85 2.54795L11.78 2.52795V1.45795C11.78 1.14795 11.52 0.897949 11.21 0.897949H8.17C7.86 0.897949 7.6 1.14795 7.6 1.45795V2.53795L7.53 2.55795C6.85 2.74795 6.18 3.01795 5.55 3.37795L5.48 3.41795L5.43 3.36795L4.72 2.66795C4.62 2.56795 4.47 2.50795 4.32 2.50795C4.17 2.50795 4.02 2.56795 3.92 2.66795L1.76 4.80795C1.66 4.90795 1.6 5.05795 1.6 5.20795C1.6 5.34795 1.66 5.49795 1.76 5.60795L2.47 6.30795L2.53 6.35795L2.49 6.42795C2.13 7.03795 1.85 7.70795 1.66 8.41795L1.64 8.48795H0.57C0.26 8.48795 0 8.74795 0 9.05795V12.0979C0 12.4079 0.25 12.6579 0.57 12.6579H1.65L1.67 12.7379C1.84 13.4279 2.12 14.0979 2.49 14.7179L2.53 14.7879L2.48 14.8379L1.77 15.5479C1.55 15.7679 1.55 16.1279 1.77 16.3479L3.92 18.4979C4.02 18.5979 4.17 18.6579 4.32 18.6579C4.47 18.6579 4.62 18.5979 4.72 18.4979L5.43 17.7879L5.48 17.7379L5.55 17.7779C6.15 18.1279 6.81 18.4079 7.53 18.5979L7.6 18.6179V19.6979C7.6 20.0079 7.86 20.268 8.17 20.268H10.3L10.33 20.3279C10.48 20.6279 10.66 20.9279 10.89 21.2079C11.93 22.5879 13.39 23.3079 15.12 23.3079H18.38C20.09 23.3079 21.55 22.5979 22.59 21.2479L22.61 21.2079C23.77 19.6979 23.98 17.9279 23.24 15.9779L23.23 15.9679ZM17.63 8.42795V8.44795C17.81 8.73795 18.09 9.11795 18.58 9.11795C18.71 9.11795 18.85 9.08795 18.99 9.03795L19.15 8.98795C19.29 8.93795 19.42 8.89795 19.52 8.86795L19.79 8.78795L19.63 9.01795C19.39 9.36795 19.25 9.58795 19.14 9.78795L19.11 9.83795H14.39L14.36 9.78795C14.25 9.58795 14.11 9.36795 13.87 9.01795L13.71 8.78795L13.98 8.86795C14.09 8.89795 14.21 8.93795 14.35 8.98795L14.51 9.03795C14.66 9.08795 14.79 9.11795 14.92 9.11795C15.45 9.11795 15.73 8.66795 15.86 8.44795C16.06 8.12795 16.2 7.89795 16.75 7.89795C17.3 7.89795 17.44 8.11795 17.64 8.41795L17.63 8.42795ZM19.86 11.0979C19.86 11.3879 19.64 11.6079 19.35 11.6079H14.02C13.74 11.6079 13.51 11.3779 13.51 11.0979C13.51 10.8179 13.74 10.5879 14.02 10.5879H19.35C19.63 10.5879 19.86 10.8179 19.86 11.0979ZM10.15 16.2379C9.82 17.2079 9.73 18.1479 9.88 19.018L9.9 19.1379H8.71V18.1679C8.71 17.8979 8.52 17.6779 8.26 17.6179C7.33 17.4379 6.47 17.0779 5.7 16.5579C5.61 16.4979 5.5 16.4679 5.39 16.4679C5.23 16.4679 5.09 16.5279 4.99 16.6379L4.38 17.2479L4.31 17.3179L4.24 17.2479L3.03 16.0379L2.96 15.9679L3.03 15.8979L3.64 15.2879C3.83 15.0879 3.86 14.7879 3.71 14.5779C3.18 13.7779 2.82 12.9179 2.64 12.0079C2.59 11.7379 2.36 11.5479 2.09 11.5479H1.13V9.63795H2.09C2.36 9.63795 2.59 9.45795 2.64 9.18795C2.82 8.28795 3.18 7.41795 3.7 6.60795C3.85 6.38795 3.82 6.09795 3.63 5.90795L3.02 5.29795L2.95 5.22795L3.02 5.15795L4.23 3.94795L4.3 3.87795L4.37 3.94795L4.98 4.55795C5.08 4.65795 5.23 4.71795 5.38 4.71795C5.49 4.71795 5.6 4.68795 5.7 4.62795C6.47 4.10795 7.34 3.74795 8.27 3.56795C8.53 3.51795 8.72 3.28795 8.72 3.01795V2.05795H10.64V3.01795C10.64 3.28795 10.83 3.51795 11.09 3.56795C12.02 3.74795 12.88 4.10795 13.66 4.63795C13.75 4.69795 13.86 4.72795 13.98 4.72795C14.13 4.72795 14.28 4.66795 14.38 4.56795L14.99 3.95795L15.06 3.88795L15.13 3.95795L16.34 5.16795L16.41 5.23795L16.34 5.30795L15.73 5.91795C15.54 6.10795 15.51 6.40795 15.66 6.61795L15.72 6.71795L15.81 6.85795L15.87 6.95795L15.77 7.00795C15.31 7.22795 15.07 7.58795 14.9 7.84795V7.86795C14.9 7.86795 14.85 7.91795 14.84 7.92795L14.8 7.96795L14.74 7.94795C14.74 7.94795 14.67 7.92795 14.63 7.90795C14.59 7.89795 14.56 7.88795 14.52 7.87795H14.48L14.46 7.82795C13.48 6.12795 11.65 5.06795 9.68 5.06795C6.63 5.06795 4.15 7.54795 4.15 10.5979C4.15 13.6479 6.62 16.1279 9.66 16.1279C9.79 16.1279 9.92 16.1279 10.05 16.1179H10.2L10.15 16.2479V16.2379ZM10.79 14.8079L10.77 14.8479H10.73C10.39 14.9479 10.05 14.9879 9.67 14.9879C7.24 14.9879 5.27 13.0179 5.27 10.5879C5.27 8.15795 7.24 6.18795 9.67 6.18795C10.87 6.18795 11.99 6.65795 12.83 7.51795L12.93 7.61795L12.8 7.67795C12.69 7.72795 12.59 7.80795 12.51 7.90795C12.08 8.46795 12.64 9.26795 12.9 9.64795C12.94 9.69795 12.97 9.74795 13 9.78795C13.03 9.83795 13.07 9.87795 13.1 9.92795L13.16 10.0079L13.08 10.0679C12.73 10.3179 12.53 10.6979 12.53 11.1179C12.53 11.4179 12.64 11.7079 12.85 11.9379L12.91 12.0079L12.85 12.0779C11.99 12.9779 11.3 13.8979 10.79 14.8079ZM21.7 20.5279C20.87 21.6079 19.71 22.1779 18.36 22.1779H15.1C13.75 22.1779 12.59 21.6079 11.76 20.5279C10.86 19.3379 10.7 17.938 11.3 16.3679C11.89 14.7979 13.15 13.3479 14.09 12.4079L14.12 12.3779H19.34L19.37 12.4079C20.32 13.3479 21.57 14.7879 22.16 16.3679C22.75 17.938 22.6 19.3379 21.7 20.5279Z" fill="white"/>
<path d="M11.0194 11.4278C11.0194 11.0978 10.8894 10.7778 10.6594 10.5478C10.4194 10.3178 10.1094 10.1878 9.77938 10.1878H9.58938C9.33938 10.1878 9.13938 9.98781 9.13938 9.73781C9.13938 9.48781 9.33938 9.28781 9.58938 9.28781H9.85938C9.99937 9.28781 10.1394 9.35781 10.2294 9.47781C10.2894 9.56781 10.3794 9.61781 10.4894 9.63781C10.5094 9.63781 10.5394 9.63781 10.5594 9.63781C10.6394 9.63781 10.7194 9.60781 10.7894 9.55781C10.8694 9.49781 10.9294 9.40781 10.9494 9.29781C10.9694 9.18781 10.9494 9.08781 10.8794 9.00781C10.7194 8.77781 10.4794 8.60781 10.1994 8.53781H10.1694L10.0994 8.50781V8.15781C10.0994 7.93781 9.91938 7.75781 9.69938 7.75781C9.47938 7.75781 9.29938 7.93781 9.29938 8.15781V8.51781L9.22937 8.53781H9.19938C8.69938 8.71781 8.35938 9.19781 8.35938 9.72781C8.35938 10.4178 8.91938 10.9678 9.59938 10.9678H9.78938C10.0394 10.9678 10.2394 11.1678 10.2394 11.4178C10.2394 11.6678 10.0394 11.8678 9.78938 11.8678H9.51938C9.37938 11.8678 9.23937 11.7978 9.14937 11.6778C9.08937 11.5878 8.99938 11.5378 8.88938 11.5178C8.86938 11.5178 8.83938 11.5178 8.81938 11.5178C8.73938 11.5178 8.65938 11.5478 8.58938 11.5878C8.40938 11.7178 8.36938 11.9678 8.49938 12.1378C8.65938 12.3678 8.89938 12.5278 9.17938 12.6078H9.21938L9.28938 12.6378V12.9878C9.28938 13.2078 9.46937 13.3878 9.68937 13.3878C9.90937 13.3878 10.0894 13.2078 10.0894 12.9878V12.6278L10.1594 12.6078H10.1894C10.6894 12.4278 11.0294 11.9578 11.0294 11.4178L11.0194 11.4278Z" fill="white"/>
<path d="M18.4291 18.2482C18.4291 17.8282 18.2691 17.4282 17.9691 17.1382C17.6691 16.8382 17.2791 16.6782 16.8591 16.6782H16.6191C16.3191 16.6782 16.0691 16.4382 16.0691 16.1282C16.0691 15.8182 16.3091 15.5782 16.6191 15.5782H16.9491C17.1191 15.5782 17.2891 15.6682 17.3891 15.8082C17.4691 15.9182 17.5891 15.9882 17.7191 16.0182C17.7491 16.0182 17.7791 16.0182 17.7991 16.0182C17.9091 16.0182 18.0091 15.9882 18.0991 15.9182C18.2091 15.8382 18.2791 15.7182 18.3091 15.5782C18.3291 15.4382 18.2991 15.3082 18.2191 15.1982C18.0091 14.9082 17.6991 14.6882 17.3491 14.5982H17.3091L17.2391 14.5682V14.1482C17.2391 13.8682 17.0091 13.6382 16.7291 13.6382C16.4491 13.6382 16.2191 13.8682 16.2191 14.1482V14.5882L16.1491 14.6082H16.1191C15.4691 14.8382 15.0391 15.4382 15.0391 16.1182C15.0391 16.9882 15.7491 17.6982 16.6191 17.6982H16.8591C17.1591 17.6982 17.4091 17.9382 17.4091 18.2482C17.4091 18.5582 17.1691 18.7982 16.8591 18.7982H16.5291C16.3591 18.7982 16.1891 18.7082 16.0891 18.5682C16.0091 18.4582 15.8891 18.3882 15.7491 18.3582C15.7191 18.3582 15.6891 18.3582 15.6691 18.3582C15.5591 18.3582 15.4591 18.3882 15.3691 18.4582C15.2591 18.5382 15.1891 18.6582 15.1591 18.7982C15.1391 18.9382 15.1691 19.0682 15.2491 19.1782C15.4591 19.4682 15.7691 19.6882 16.1191 19.7782H16.1591L16.2291 19.8082V20.2282C16.2291 20.5082 16.4591 20.7482 16.7391 20.7482C17.0191 20.7482 17.2491 20.5182 17.2491 20.2282V19.7882L17.3191 19.7682H17.3491C17.9991 19.5382 18.4291 18.9382 18.4291 18.2582V18.2482Z" fill="white"/>
</g>
<defs>
<clipPath id="clip0_3127_7341">
<rect width="23.66" height="22.4" fill="white" transform="translate(0 0.897949)"/>
</clipPath>
</defs>
</svg>
