<svg width="24" height="21" viewBox="0 0 24 21" fill="none" xmlns="http://www.w3.org/2000/svg">
<path d="M22.096 16.3798H20.9979V9.9697C20.9979 9.1428 20.3231 8.46804 19.4962 8.46804H16.3408V6.32471C16.3408 6.32471 16.3408 6.29825 16.3408 6.28502V2.03144C16.3408 1.20454 15.666 0.529785 14.8391 0.529785H7.80715C6.98025 0.529785 6.3055 1.20454 6.3055 2.03144V8.46804H3.6991C2.8722 8.46804 2.19745 9.1428 2.19745 9.9697V16.3798H1.91961C0.86779 16.3798 0.0078125 17.2398 0.0078125 18.2916V18.4636C0.0078125 19.5155 0.86779 20.3754 1.91961 20.3754H22.1026C23.1545 20.3754 24.0144 19.5155 24.0144 18.4636V18.2916C24.0144 17.2398 23.1545 16.3798 22.1026 16.3798H22.096ZM19.7278 9.9697V16.3798H12.2327V9.9697C12.2327 9.84401 12.3386 9.73816 12.4643 9.73816H13.6153V10.6114C13.6153 11.1869 14.085 11.6566 14.6605 11.6566H17.1809C17.7564 11.6566 18.2261 11.1869 18.2261 10.6114V9.73816H19.4896C19.6153 9.73816 19.7212 9.84401 19.7212 9.9697H19.7278ZM16.9626 9.73816V10.3865H14.892V9.73816H16.9626ZM10.2283 1.79991H12.2989V2.4482H10.2283V1.79991ZM7.569 2.03144C7.569 1.90575 7.67485 1.79991 7.80054 1.79991H8.9582V2.67312C8.9582 3.24864 9.42788 3.72493 10.0034 3.72493H12.5238C13.0993 3.72493 13.569 3.25525 13.569 2.67312V1.79991H14.8325C14.9582 1.79991 15.064 1.90575 15.064 2.03144V6.5364C15.064 6.5364 15.064 6.56286 15.064 6.57609V8.46804H12.4576C12.1335 8.46804 11.8358 8.57389 11.5911 8.74588C11.3463 8.57389 11.0486 8.46804 10.7245 8.46804H7.569V2.03144ZM6.12027 9.73816H8.19083V10.3865H6.12027V9.73816ZM3.46095 9.9697C3.46095 9.84401 3.5668 9.73816 3.69249 9.73816H4.85015V10.6114C4.85015 11.1869 5.31983 11.6566 5.89535 11.6566H8.41575C8.99127 11.6566 9.46095 11.1869 9.46095 10.6114V9.73816H10.7245C10.8501 9.73816 10.956 9.84401 10.956 9.9697V16.3798H3.46095V9.9697ZM22.7311 18.4636C22.7311 18.8142 22.4466 19.1053 22.0894 19.1053H1.91299C1.56239 19.1053 1.27132 18.8209 1.27132 18.4636V18.2916C1.27132 17.941 1.55577 17.65 1.91299 17.65H22.096C22.4466 17.65 22.7377 17.9344 22.7377 18.2916V18.4636H22.7311Z" fill="white"/>
</svg>
