<svg width="19" height="23" viewBox="0 0 19 23" fill="none" xmlns="http://www.w3.org/2000/svg">
<path d="M18.3926 18.105C18.7747 17.1799 18.5837 16.1745 17.8899 15.4606L16.6028 14.1534C16.4118 13.9624 16.3113 13.711 16.3113 13.4395V9.47792C16.3113 6.40114 14.25 3.63606 11.2939 2.75123H11.2537V2.6909C11.2838 2.56019 11.2939 2.42948 11.2939 2.29877C11.2939 1.19273 10.399 0.297852 9.29297 0.297852C8.18694 0.297852 7.29206 1.19273 7.29206 2.29877C7.29206 2.42948 7.30211 2.56019 7.33228 2.6909V2.73112L7.30211 2.74118C4.34599 3.62601 2.28475 6.38103 2.28475 9.46787V13.4295C2.28475 13.701 2.1842 13.9523 1.99315 14.1434L0.706135 15.4505C0.00229538 16.1644 -0.188747 17.1799 0.193337 18.0949C0.575422 19.02 1.44014 19.583 2.43557 19.583H6.26646V19.6233C6.45751 21.1516 7.75458 22.2979 9.29297 22.2979C10.8314 22.2979 12.1284 21.1516 12.3094 19.6233V19.583H16.1504C17.1458 19.583 18.0105 19.0099 18.3926 18.0949V18.105ZM9.28292 1.70553C9.60467 1.70553 9.87615 1.96696 9.87615 2.29877C9.87615 2.34904 9.87615 2.38926 9.85604 2.43953V2.47975H9.80577C9.62478 2.4697 9.45385 2.45964 9.28292 2.45964C9.11199 2.45964 8.94105 2.45964 8.76007 2.47975H8.71985L8.70979 2.43953C8.69974 2.39931 8.68968 2.34904 8.68968 2.29877C8.68968 1.97701 8.95111 1.70553 9.28292 1.70553ZM10.8615 19.6534C10.6805 20.3874 10.037 20.9002 9.28292 20.9002C8.5288 20.9002 7.87524 20.3874 7.70431 19.6534V19.5931H10.8816V19.6534H10.8615ZM2.42551 18.1754C1.79206 18.1754 1.54069 17.6927 1.48036 17.552C1.42003 17.4011 1.2491 16.8883 1.69151 16.4359L2.97853 15.1287C3.431 14.6662 3.67231 14.0629 3.67231 13.4194V9.45781C3.67231 6.37098 6.18603 3.85727 9.27286 3.85727C12.3597 3.85727 14.8734 6.37098 14.8734 9.45781V13.4194C14.8734 14.0629 15.1248 14.6662 15.5672 15.1287L16.8542 16.4359C17.2966 16.8883 17.1257 17.4011 17.0654 17.552C17.005 17.7028 16.7537 18.1754 16.1202 18.1754H2.43557H2.42551Z" fill="white"/>
</svg>
