<svg width="18" height="24" viewBox="0 0 18 24" fill="none" xmlns="http://www.w3.org/2000/svg">
<path d="M15.6143 3.23396H13.7304V2.47628C13.7304 2.07697 13.3311 1.89266 12.9625 1.89266H11.4881C11.0785 0.889252 10.157 0.285156 8.98976 0.285156C8.95904 0.285156 8.91809 0.285156 8.88737 0.285156C7.83276 0.285156 6.89078 0.919969 6.49147 1.89266H5.03754C4.59727 1.89266 4.2901 2.12816 4.2901 2.47628V3.23396H2.40614C1.11604 3.2442 0.0614334 4.26809 0 5.55819V20.9268C0 22.135 1.07509 23.1179 2.40614 23.1179H15.5939C16.9249 23.1179 18 22.135 18 20.9268V5.55819C17.9386 4.26809 16.884 3.25444 15.5939 3.23396H15.6143ZM5.68259 5.10768V3.27492H7.02389C7.35154 3.23396 7.60751 2.98823 7.66894 2.67082C7.81229 2.04625 8.35495 1.60598 8.98976 1.5855C9.62457 1.60598 10.157 2.04625 10.2901 2.66058C10.3515 2.99847 10.628 3.2442 10.9761 3.27492H12.3481V5.10768H5.68259ZM15.6143 21.7357H2.41638C1.92491 21.7357 1.39249 21.4285 1.39249 20.9268V5.57867C1.44369 5.03601 1.88396 4.62645 2.41638 4.61621H4.30034V5.84488C4.3413 6.21348 4.64846 6.48993 5.00683 6.48993C5.01707 6.48993 5.0273 6.48993 5.04778 6.48993H12.9522C13.3311 6.48993 13.6792 6.23396 13.7304 5.82441V4.60598H15.6143C16.157 4.60598 16.5973 5.02577 16.6382 5.54795V20.9166C16.6382 21.4183 16.1058 21.7254 15.6143 21.7254V21.7357Z" fill="white"/>
<path d="M7.04437 16.606C6.7884 16.3398 6.35836 16.3295 6.08191 16.5753L4.4744 18.1009L3.86007 17.466C3.6041 17.1998 3.17406 17.1794 2.88737 17.4353C2.62116 17.7118 2.62116 18.1521 2.88737 18.4285L3.98294 19.5548C4.1058 19.6879 4.27986 19.7698 4.45392 19.7698H4.4744C4.6587 19.7698 4.83276 19.6879 4.95563 19.565L7.04437 17.5787C7.31058 17.3329 7.33106 16.9131 7.07509 16.6265L7.04437 16.5957V16.606Z" fill="white"/>
<path d="M7.04437 12.3159C6.7884 12.0497 6.35836 12.0394 6.08191 12.2852L4.4744 13.8108L3.86007 13.1759C3.6041 12.9097 3.17406 12.8893 2.88737 13.1452C2.62116 13.4217 2.62116 13.8619 2.88737 14.1384L3.98294 15.2544C4.1058 15.3875 4.27986 15.4695 4.45392 15.4695H4.4744C4.6587 15.4695 4.83276 15.3875 4.95563 15.2647L7.04437 13.2783C7.17747 13.1555 7.24915 12.9916 7.25939 12.8176C7.26962 12.6435 7.20819 12.4695 7.08532 12.3466C7.07509 12.3364 7.06485 12.3159 7.04437 12.3056V12.3159Z" fill="white"/>
<path d="M14.6311 13.4214H8.46726C8.08842 13.4214 7.78125 13.7286 7.78125 14.1074C7.78125 14.4862 8.08842 14.7934 8.46726 14.7934H14.6311C15.0099 14.7934 15.3171 14.4862 15.3171 14.1074C15.3171 13.7286 15.0099 13.4214 14.6311 13.4214Z" fill="white"/>
<path d="M14.6311 9.13135H8.46726C8.08842 9.13135 7.78125 9.43851 7.78125 9.81735C7.78125 10.1962 8.08842 10.5034 8.46726 10.5034H14.6311C15.0099 10.5034 15.3171 10.1962 15.3171 9.81735C15.3171 9.43851 15.0099 9.13135 14.6311 9.13135Z" fill="white"/>
<path d="M7.04437 8.02577C6.7884 7.75956 6.35836 7.74932 6.08191 7.99505L4.4744 9.52065L3.86007 8.88584C3.6041 8.61963 3.17406 8.59915 2.88737 8.85512C2.62116 9.13157 2.62116 9.57185 2.88737 9.8483L3.98294 10.9643C4.1058 11.0974 4.27986 11.1794 4.45392 11.1794H4.4744C4.6587 11.1794 4.83276 11.0974 4.95563 10.9746L7.04437 8.98823C7.17747 8.86536 7.24915 8.70154 7.25939 8.52748C7.26962 8.35342 7.20819 8.17935 7.08532 8.05649C7.07509 8.04625 7.06485 8.02577 7.04437 8.01553V8.02577Z" fill="white"/>
<path d="M14.6311 17.7114H8.46726C8.08842 17.7114 7.78125 18.0186 7.78125 18.3974C7.78125 18.7763 8.08842 19.0834 8.46726 19.0834H14.6311C15.0099 19.0834 15.3171 18.7763 15.3171 18.3974C15.3171 18.0186 15.0099 17.7114 14.6311 17.7114Z" fill="white"/>
</svg>
