<svg width="21" height="24" viewBox="0 0 21 24" fill="none" xmlns="http://www.w3.org/2000/svg">
<g clip-path="url(#clip0_3127_7350)">
<path d="M16.52 23.6979H3.52C1.58 23.6979 0 22.1179 0 20.1779V3.81785C0 1.87785 1.58 0.297852 3.52 0.297852H14.07C15.24 0.297852 16.38 0.767852 17.2 1.59785L18.74 3.13785C19.58 3.97785 20.04 5.08785 20.04 6.26785V20.1779C20.04 22.1179 18.46 23.6979 16.52 23.6979ZM3.52 1.69785C2.35 1.69785 1.4 2.64785 1.4 3.81785V20.1779C1.4 21.3479 2.35 22.2979 3.52 22.2979H16.52C17.69 22.2979 18.64 21.3479 18.64 20.1779V7.28785H15.61C14.2 7.28785 13.05 6.13785 13.05 4.72785V1.69785H3.52ZM14.45 1.71785V4.71785C14.45 5.35785 14.97 5.87785 15.61 5.87785H18.62C18.54 5.20785 18.24 4.59785 17.76 4.11785L16.22 2.57785C15.75 2.10785 15.12 1.79785 14.46 1.71785H14.45ZM15.61 18.0979H4.43C4.04 18.0979 3.73 17.7879 3.73 17.3979C3.73 17.0079 4.04 16.6979 4.43 16.6979H5.59V14.0379C5.59 13.6479 5.9 13.3379 6.29 13.3379C6.68 13.3379 6.99 13.6479 6.99 14.0379V16.6979H9.32V12.1779C9.32 11.7879 9.63 11.4779 10.02 11.4779C10.41 11.4779 10.72 11.7879 10.72 12.1779V16.6979H13.05V10.3179C13.05 9.92785 13.36 9.61785 13.75 9.61785C14.14 9.61785 14.45 9.92785 14.45 10.3179V16.6979H15.61C16 16.6979 16.31 17.0079 16.31 17.3979C16.31 17.7879 16 18.0979 15.61 18.0979ZM8.15 7.28785H4.42C4.03 7.28785 3.72 6.97785 3.72 6.58785C3.72 6.19785 4.03 5.88785 4.42 5.88785H8.15C8.54 5.88785 8.85 6.19785 8.85 6.58785C8.85 6.97785 8.54 7.28785 8.15 7.28785Z" fill="white"/>
</g>
<defs>
<clipPath id="clip0_3127_7350">
<rect width="20.04" height="23.4" fill="white" transform="translate(0 0.297852)"/>
</clipPath>
</defs>
</svg>
