<svg width="25" height="25" viewBox="0 0 25 25" fill="none" xmlns="http://www.w3.org/2000/svg">
<g clip-path="url(#clip0_3127_7354)">
<path d="M9.16906 12.8176C9.52906 12.8176 9.82906 12.5176 9.82906 12.1576C9.82906 11.7976 9.52906 11.4976 9.16906 11.4976C6.89906 11.4976 5.04906 13.3476 5.03906 15.6176C5.03906 17.8876 6.88906 19.7376 9.15906 19.7376C11.4291 19.7376 13.2791 17.8876 13.2791 15.6176C13.2791 15.2576 12.9791 14.9576 12.6191 14.9576C12.2591 14.9576 11.9591 15.2576 11.9591 15.6176C11.9591 16.3676 11.6691 17.0776 11.1391 17.5976C10.6091 18.1276 9.90906 18.4176 9.15906 18.4176C7.60906 18.4176 6.34906 17.1576 6.34906 15.6076C6.34906 14.0576 7.60906 12.7976 9.15906 12.7976L9.16906 12.8176Z" fill="white"/>
<path d="M16.77 16.478L15.5 16.698C15.25 16.738 15.04 16.928 14.98 17.178C14.85 17.678 14.65 18.158 14.39 18.608C14.26 18.828 14.27 19.108 14.42 19.318L15.16 20.378C15.25 20.508 15.24 20.678 15.12 20.788L14.35 21.548C14.24 21.658 14.07 21.678 13.94 21.588L12.88 20.838C12.67 20.688 12.39 20.678 12.17 20.808C11.72 21.068 11.24 21.268 10.74 21.398C10.49 21.468 10.31 21.668 10.26 21.918L10.03 23.188C10 23.338 9.87 23.458 9.71 23.458H8.63C8.47 23.458 8.34 23.348 8.31 23.188L8.09 21.918C8.05 21.668 7.86 21.458 7.61 21.398C7.11 21.258 6.63 21.058 6.18 20.808C5.96 20.678 5.68 20.688 5.47 20.838L4.41 21.578C4.28 21.668 4.11 21.658 4 21.538L3.24 20.778C3.13 20.668 3.11 20.488 3.2 20.368L3.94 19.308C4.09 19.098 4.1 18.818 3.97 18.598C3.71 18.148 3.51 17.668 3.38 17.168C3.31 16.918 3.11 16.738 2.86 16.688L1.59 16.468C1.44 16.438 1.32 16.308 1.32 16.148V15.068C1.32 14.908 1.43 14.778 1.59 14.748L2.86 14.528C3.11 14.488 3.32 14.298 3.38 14.048C3.51 13.548 3.71 13.068 3.97 12.618C4.1 12.398 4.09 12.118 3.94 11.908L3.2 10.848C3.11 10.718 3.12 10.548 3.24 10.438L4.01 9.66796C4.12 9.55796 4.29 9.54796 4.42 9.62796L5.48 10.368C5.69 10.518 5.97 10.528 6.19 10.398C6.64 10.138 7.12 9.93796 7.62 9.80796C7.87 9.73796 8.05 9.53796 8.1 9.28796L8.32 8.00796C8.38 7.64796 8.14 7.30796 7.78 7.24796C7.42 7.18796 7.08 7.42796 7.02 7.78796L6.87 8.66796C6.54 8.77796 6.21 8.91796 5.91 9.06796L5.18 8.55796C4.53 8.09796 3.64 8.17796 3.08 8.73796L2.31 9.49796C1.74 10.058 1.67 10.948 2.13 11.598L2.64 12.328C2.48 12.638 2.35 12.958 2.24 13.288L1.36 13.438C0.57 13.608 0 14.288 0 15.078V16.158C0 16.958 0.57 17.638 1.36 17.778L2.24 17.928C2.35 18.258 2.49 18.578 2.64 18.888L2.13 19.618C1.67 20.268 1.75 21.158 2.31 21.718L3.08 22.478C3.64 23.038 4.53 23.118 5.18 22.658L5.91 22.148C6.22 22.308 6.55 22.438 6.87 22.548L7.02 23.428C7.16 24.218 7.84 24.778 8.63 24.778H9.72C10.52 24.778 11.2 24.208 11.33 23.418L11.48 22.538C11.81 22.428 12.13 22.298 12.44 22.138L13.17 22.648C13.82 23.108 14.71 23.028 15.27 22.468L16.04 21.698C16.61 21.138 16.68 20.248 16.22 19.598L15.71 18.868C15.87 18.558 16 18.238 16.11 17.908L16.99 17.758C17.35 17.698 17.59 17.348 17.53 16.998C17.5 16.828 17.4 16.678 17.26 16.568C17.12 16.468 16.94 16.428 16.77 16.458V16.478Z" fill="white"/>
<path d="M22.9195 6.22752L22.3095 6.11752C22.2395 5.90752 22.1495 5.69752 22.0495 5.49752L22.4095 4.99752C22.8095 4.42752 22.7395 3.65752 22.2495 3.16752L21.6495 2.55752C21.1595 2.06752 20.3795 1.99752 19.8095 2.39752L19.2995 2.75752C19.0995 2.65752 18.8895 2.56752 18.6795 2.49752L18.5795 1.88752C18.4595 1.19752 17.8695 0.70752 17.1695 0.70752H16.3095C15.6095 0.70752 15.0195 1.20752 14.8995 1.88752L14.7895 2.49752C14.5795 2.57752 14.3695 2.65752 14.1695 2.75752L13.6595 2.39752C13.0895 1.99752 12.3195 2.06752 11.8195 2.55752L11.2195 3.15752C10.7195 3.64752 10.6595 4.42752 11.0595 4.99752L11.4095 5.50752C11.3095 5.70752 11.2195 5.91752 11.1495 6.12752L10.5395 6.22752C9.84952 6.34752 9.34952 6.93752 9.35952 7.63752V8.48752C9.35952 9.18752 9.85952 9.77752 10.5395 9.89752L11.1495 10.0075C11.2195 10.2175 11.3095 10.4275 11.4095 10.6275L11.0595 11.1375C10.6595 11.7075 10.7295 12.4775 11.2195 12.9675L11.8195 13.5675C12.3095 14.0675 13.0895 14.1275 13.6595 13.7275L14.1695 13.3675C14.3695 13.4675 14.5795 13.5575 14.7895 13.6275L14.8995 14.2375C15.0195 14.9275 15.6095 15.4175 16.3095 15.4175H17.1595C17.8595 15.4175 18.4495 14.9175 18.5695 14.2275L18.6795 13.6175C18.8895 13.5475 19.0995 13.4575 19.2995 13.3575L19.7995 13.7175C20.3695 14.1175 21.1395 14.0575 21.6395 13.5575L22.2395 12.9575C22.7295 12.4675 22.7995 11.6975 22.3995 11.1275L22.0395 10.6175C22.1395 10.4175 22.2295 10.2075 22.2995 9.99752L22.9095 9.88752C23.5995 9.76752 24.0895 9.17752 24.0895 8.47752V7.62752C24.0895 6.92752 23.5895 6.33752 22.9095 6.21752L22.9195 6.22752ZM21.1595 9.25752C21.0595 9.63752 20.8995 10.0075 20.7095 10.3475C20.5795 10.5675 20.5895 10.8475 20.7395 11.0575L21.3295 11.8975C21.3295 11.8975 21.3595 12.0075 21.3195 12.0475L20.7195 12.6475C20.7195 12.6475 20.6195 12.6875 20.5695 12.6475L19.7295 12.0575C19.5195 11.9075 19.2395 11.8975 19.0195 12.0275C18.6795 12.2275 18.3095 12.3775 17.9295 12.4775C17.6795 12.5475 17.4995 12.7475 17.4495 12.9975L17.2695 13.9975C17.2695 14.0475 17.2095 14.0875 17.1595 14.0875H16.3095C16.2495 14.0875 16.2095 14.0475 16.1995 13.9975L16.0195 12.9975C15.9795 12.7475 15.7895 12.5375 15.5395 12.4775C15.1595 12.3775 14.7895 12.2175 14.4495 12.0275C14.3495 11.9675 14.2295 11.9375 14.1195 11.9375C13.9895 11.9375 13.8495 11.9775 13.7395 12.0575L12.9095 12.6375C12.9095 12.6375 12.7995 12.6675 12.7595 12.6275L12.1595 12.0275C12.1595 12.0275 12.1195 11.9275 12.1495 11.8775L12.7395 11.0375C12.8895 10.8275 12.8995 10.5475 12.7695 10.3275C12.5695 9.98752 12.4195 9.61752 12.3195 9.23752C12.2495 8.98752 12.0495 8.80752 11.7995 8.76752L10.7995 8.58752C10.7495 8.58752 10.7095 8.52752 10.7095 8.47752V7.62752C10.7095 7.56752 10.7495 7.52752 10.8095 7.51752L11.8095 7.33752C12.0595 7.29752 12.2695 7.10752 12.3295 6.85752C12.4295 6.47752 12.5895 6.10752 12.7795 5.76752C12.9095 5.54752 12.8995 5.26752 12.7495 5.05752L12.1695 4.21752C12.1695 4.21752 12.1395 4.10752 12.1795 4.06752L12.7795 3.46752C12.7795 3.46752 12.8795 3.42752 12.9295 3.45752L13.7695 4.04752C13.9795 4.19752 14.2595 4.20752 14.4795 4.07752C14.8195 3.87752 15.1895 3.72752 15.5695 3.62752C15.8195 3.55752 15.9995 3.35752 16.0495 3.10752L16.2295 2.10752C16.2295 2.05752 16.2895 2.01752 16.3395 2.01752H17.1895C17.2495 2.01752 17.2895 2.05752 17.2995 2.10752L17.4795 3.10752C17.5195 3.35752 17.7095 3.56752 17.9595 3.62752C18.3395 3.72752 18.7095 3.88752 19.0495 4.07752C19.2695 4.20752 19.5495 4.19752 19.7595 4.04752L20.5995 3.45752C20.5995 3.45752 20.7095 3.42752 20.7495 3.46752L21.3495 4.06752C21.3495 4.06752 21.3895 4.16752 21.3595 4.20752L20.7695 5.04752C20.6195 5.25752 20.6095 5.53752 20.7395 5.75752C20.9395 6.09752 21.0895 6.46752 21.1895 6.84752C21.2595 7.09752 21.4595 7.27752 21.7095 7.32752L22.7195 7.50752C22.7695 7.50752 22.8095 7.56752 22.8095 7.61752V8.46752C22.8095 8.52752 22.7695 8.56752 22.7195 8.57752L21.7095 8.75752C21.4595 8.79752 21.2495 8.98752 21.1895 9.23752L21.1595 9.25752Z" fill="white"/>
<path d="M16.7295 5.10791C15.0995 5.10791 13.7695 6.43791 13.7695 8.06791C13.7695 9.69791 15.0995 11.0279 16.7295 11.0279C18.3595 11.0279 19.6895 9.69791 19.6895 8.06791C19.6895 6.43791 18.3595 5.10791 16.7295 5.10791ZM18.3695 8.06791C18.3695 8.97791 17.6295 9.70791 16.7295 9.70791C15.8295 9.70791 15.0895 8.96791 15.0895 8.06791C15.0895 7.16791 15.7995 6.44791 16.6795 6.42791H16.7295C17.6395 6.42791 18.3695 7.16791 18.3695 8.06791Z" fill="white"/>
</g>
<defs>
<clipPath id="clip0_3127_7354">
<rect width="24.1" height="24.1" fill="white" transform="translate(0 0.697754)"/>
</clipPath>
</defs>
</svg>
